<?xml version="1.0" encoding="UTF-8"?>
<svg width="39px" height="39px" viewBox="0 0 39 39" version="1.1" xmlns="http://www.w3.org/2000/svg" xmlns:xlink="http://www.w3.org/1999/xlink">
    <!-- Generator: Sketch 48.1 (47250) - http://www.bohemiancoding.com/sketch -->
    <title>Page 1</title>
    <desc>Created with Sketch.</desc>
    <defs>
        <polygon id="path-1" points="0.0003 0.017 38.9823 0.017 38.9823 38.9999 0.0003 38.9999"></polygon>
        <polygon id="path-3" points="0 39.9832 38.983 39.9832 38.983 1.0002 0 1.0002"></polygon>
    </defs>
    <g id="Event" stroke="none" stroke-width="1" fill="none" fill-rule="evenodd" transform="translate(-301.000000, -129.000000)">
        <g id="Group-7" transform="translate(301.000000, 122.000000)">
            <g id="Page-1" transform="translate(0.000000, 6.000000)">
                <g id="Group-3" transform="translate(0.000000, 0.983200)">
                    <mask id="mask-2" fill="white">
                        <use xlink:href="#path-1"></use>
                    </mask>
                    <g id="Clip-2"></g>
                    <path d="M36.5443,35.7459 C36.5443,36.1979 36.1823,36.5609 35.7353,36.5609 L3.2473,36.5609 C2.8023,36.5609 2.4393,36.1979 2.4393,35.7459 L2.4393,6.9159 C2.4393,6.4699 2.8023,6.1069 3.2473,6.1069 L8.5293,6.1069 L8.5293,8.5469 C8.5293,9.2179 9.0703,9.7589 9.7413,9.7589 C10.4153,9.7589 10.9613,9.2179 10.9613,8.5469 L10.9613,6.1069 L18.2723,6.1069 L18.2723,8.5469 C18.2723,9.2179 18.8183,9.7589 19.4913,9.7589 C20.1633,9.7589 20.7113,9.2179 20.7113,8.5469 L20.7113,6.1069 L28.0143,6.1069 L28.0143,8.5469 C28.0143,9.2179 28.5623,9.7589 29.2333,9.7589 C29.9063,9.7589 30.4533,9.2179 30.4533,8.5469 L30.4533,6.1069 L35.7353,6.1069 C36.1823,6.1069 36.5443,6.4699 36.5443,6.9159 L36.5443,35.7459 Z M35.7353,3.6679 L30.4533,3.6679 L30.4533,1.2369 C30.4533,0.5629 29.9063,0.0169 29.2333,0.0169 C28.5623,0.0169 28.0143,0.5629 28.0143,1.2369 L28.0143,3.6679 L20.7113,3.6679 L20.7113,1.2369 C20.7113,0.5629 20.1633,0.0169 19.4913,0.0169 C18.8183,0.0169 18.2723,0.5629 18.2723,1.2369 L18.2723,3.6679 L10.9613,3.6679 L10.9613,1.2369 C10.9613,0.5629 10.4153,0.0169 9.7413,0.0169 C9.0703,0.0169 8.5293,0.5629 8.5293,1.2369 L8.5293,3.6679 L3.2473,3.6679 C1.4573,3.6679 0.0003,5.1249 0.0003,6.9159 L0.0003,35.7459 C0.0003,37.5429 1.4573,38.9999 3.2473,38.9999 L35.7353,38.9999 C37.5253,38.9999 38.9823,37.5429 38.9823,35.7459 L38.9823,6.9159 C38.9823,5.1249 37.5253,3.6679 35.7353,3.6679 Z" id="Fill-1" fill="#7F8184" mask="url(#mask-2)"></path>
                </g>
                <mask id="mask-4" fill="white">
                    <use xlink:href="#path-3"></use>
                </mask>
                <g id="Clip-5"></g>
                <polygon id="Fill-4" fill="#7F8184" mask="url(#mask-4)" points="8.53 19.2722 13.401 19.2722 13.401 15.6212 8.53 15.6212"></polygon>
                <polygon id="Fill-6" fill="#7F8184" mask="url(#mask-4)" points="8.53 25.3622 13.401 25.3622 13.401 21.7112 8.53 21.7112"></polygon>
                <polygon id="Fill-7" fill="#7F8184" mask="url(#mask-4)" points="8.53 31.4532 13.401 31.4532 13.401 27.8022 8.53 27.8022"></polygon>
                <polygon id="Fill-8" fill="#7F8184" mask="url(#mask-4)" points="17.052 31.4532 21.923 31.4532 21.923 27.8022 17.052 27.8022"></polygon>
                <polygon id="Fill-9" fill="#7F8184" mask="url(#mask-4)" points="17.052 25.3622 21.923 25.3622 21.923 21.7112 17.052 21.7112"></polygon>
                <polygon id="Fill-10" fill="#7F8184" mask="url(#mask-4)" points="17.052 19.2722 21.923 19.2722 21.923 15.6212 17.052 15.6212"></polygon>
                <polygon id="Fill-11" fill="#7F8184" mask="url(#mask-4)" points="25.582 31.4532 30.453 31.4532 30.453 27.8022 25.582 27.8022"></polygon>
                <polygon id="Fill-12" fill="#7F8184" mask="url(#mask-4)" points="25.582 25.3622 30.453 25.3622 30.453 21.7112 25.582 21.7112"></polygon>
                <polygon id="Fill-13" fill="#7F8184" mask="url(#mask-4)" points="25.582 19.2722 30.453 19.2722 30.453 15.6212 25.582 15.6212"></polygon>
            </g>
        </g>
    </g>
</svg>