<?xml version="1.0" encoding="UTF-8"?>
<svg width="40px" height="36px" viewBox="0 0 40 36" version="1.1" xmlns="http://www.w3.org/2000/svg" xmlns:xlink="http://www.w3.org/1999/xlink">
    <!-- Generator: Sketch 48.1 (47250) - http://www.bohemiancoding.com/sketch -->
    <title>Page 1</title>
    <desc>Created with Sketch.</desc>
    <defs>
        <polygon id="path-1" points="0.00049292215 0.0814 38.4501 0.0814 38.4501 27 0.00049292215 27"></polygon>
    </defs>
    <g id="Event" stroke="none" stroke-width="1" fill="none" fill-rule="evenodd" transform="translate(-927.000000, -132.000000)">
        <g id="Group-4" transform="translate(927.000000, 122.000000)">
            <g id="Page-1" transform="translate(0.000000, 10.000000)">
                <path d="M38.4935,5.2287 L13.9825,0.0417 C12.9455,-0.1773 11.9175,0.4917 11.6985,1.5287 L11.2325,4.5207 L39.5145,10.5057 L39.9795,7.5137 C40.1995,6.4767 39.5305,5.4487 38.4935,5.2287" id="Fill-1" fill="#7F8184"></path>
                <g id="Group-5" transform="translate(0.000000, 8.674900)">
                    <mask id="mask-2" fill="white">
                        <use xlink:href="#path-1"></use>
                    </mask>
                    <g id="Clip-4"></g>
                    <path d="M30.9061,18.1964 C30.9381,18.3124 30.9041,18.4084 30.8701,18.4684 C30.8371,18.5294 30.7721,18.6074 30.6561,18.6394 L6.2891,25.4014 C6.2591,25.4094 6.2271,25.4144 6.1961,25.4144 C6.0591,25.4144 5.8951,25.3234 5.8471,25.1514 L3.3691,16.2224 L28.4271,9.2684 L29.9561,14.7754 L30.9061,18.1964 Z M1.8491,9.4014 L8.5921,7.5304 L24.5021,3.1154 L26.2151,2.6394 C26.2461,2.6314 26.2771,2.6274 26.3071,2.6274 C26.4451,2.6274 26.6091,2.7174 26.6571,2.8894 L26.8581,3.6134 L27.4881,5.8834 L2.4291,12.8374 L1.5981,9.8434 C1.5461,9.6554 1.6611,9.4534 1.8491,9.4014 Z M31.0001,10.2454 L31.6031,7.3974 C31.6931,6.9704 32.1161,6.6964 32.5421,6.7864 L35.3901,7.3884 C35.8171,7.4794 36.0921,7.9014 36.0021,8.3284 L35.4001,11.1764 C35.3091,11.6034 34.8861,11.8794 34.4601,11.7884 L31.6121,11.1854 C31.1851,11.0944 30.9091,10.6724 31.0001,10.2454 Z M28.1861,2.4654 C27.9001,1.4344 26.8221,0.8254 25.7911,1.1114 L21.1381,2.4034 L10.1691,0.0814 L8.9631,5.7814 L1.4251,7.8734 C0.3941,8.1594 -0.2149,9.2374 0.0711,10.2674 L4.3181,25.5744 C4.6051,26.6054 5.6821,27.2164 6.7131,26.9294 L31.0791,20.1674 C32.1101,19.8814 32.7191,18.8034 32.4341,17.7734 L31.7051,15.1454 L34.4371,15.7224 C35.4751,15.9424 36.5031,15.2734 36.7221,14.2364 L38.4501,6.0664 L28.6071,3.9834 L28.1861,2.4654 Z" id="Fill-3" fill="#7F8184" mask="url(#mask-2)"></path>
                </g>
                <path d="M10.2264,27.4826 C10.1094,27.0616 9.6704,26.8136 9.2504,26.9296 L6.4044,27.7196 C5.9844,27.8366 5.7354,28.2756 5.8524,28.6966 L6.6424,31.5416 C6.7594,31.9616 7.1984,32.2106 7.6184,32.0936 L10.4644,31.3036 C10.8844,31.1876 11.1324,30.7476 11.0164,30.3276 L10.2264,27.4826 Z" id="Fill-6" fill="#7F8184"></path>
            </g>
        </g>
    </g>
</svg>