<?xml version="1.0" encoding="utf-8"?>
<!-- Generator: Adobe Illustrator 22.0.1, SVG Export Plug-In . SVG Version: 6.00 Build 0)  -->
<svg version="1.1" id="Layer_1" xmlns="http://www.w3.org/2000/svg" xmlns:xlink="http://www.w3.org/1999/xlink" x="0px" y="0px"
	 viewBox="0 0 570.5 227.7" style="enable-background:new 0 0 570.5 227.7;" xml:space="preserve">
<style type="text/css">
	.st0{fill:#0090A0;}
	.st1{fill:#D9E7EA;}
	.st2{fill:#FFFFFF;}
</style>
<g>
	<path class="st0" d="M18.8,116.6c-0.8-0.1-1.6-0.2-2.4-0.2c-0.9,0-1.4-0.5-1.6-1.3c-0.2-0.8,0.2-1.3,0.8-1.8
		c0.4-0.3,0.8-0.5,1.3-0.6c0.7-0.2,1.3-0.3,1.7,0.5c0.5,0.8,0.9,0.7,1.4-0.1c0.4-0.6,0.7-1.4,0.8-2.1c0.1-0.9,0.4-1.4,1.3-1.4
		c0.3,0,0.6-0.1,0.6-0.4c0-0.4-0.2-0.6-0.5-0.8c0,0-0.1-0.1-0.1-0.1c-1.9,0-2.5-1.3-3.1-2.7c-0.4-0.8-0.9-1.4-1.5-2.1
		c-1.4-1.8-1.4-2.6-0.1-4.4c0.5-0.6,1-1.3,1.3-2c0.2-0.6,0.2-0.9-0.4-1.3c-1.5-1-1.5-1.4-0.5-3.1c-0.6-0.5-1.5-0.8-1.7-1.8
		c-0.2-0.9,0.2-1.8,0.4-2.6c0.3-1,0.6-1.9,1-2.9c0.2-0.5,0.2-0.9,0.1-1.4c-0.2-1.2-0.8-1.5-2-1c-0.5-1.1-0.5-2.2-0.2-3.4
		c0.3-1.1,0.6-2.2,1-3.2c0.5-1.3,0.6-2.6,0-3.9c-0.9-2-0.9-4-0.1-6.1c0.2-0.5,0.3-1,0.4-1.5c0.2-1.3-0.1-2.3-1.2-3
		c-0.4-0.3-0.8-0.5-1.2-0.8c-0.4-0.2-0.7-0.5-0.9-0.9c-0.6-0.9-0.3-1.5,0.7-1.7c1.3-0.3,1.4-0.5,1.1-1.7c-0.3-0.9-0.2-1.8-0.6-2.6
		c-0.3-0.5,0.1-0.9,0.4-1.3c0.7-0.7,1.4-1.5,2.1-2.2c0.8-0.7,1.3-1.5,1.4-2.6c0.1-0.9,0.3-1.9,0.5-2.8c0.2-1,0.1-1.9-1.1-2.3
		c0.4-0.6,1-0.7,1.5-0.9c1.2-0.5,2.5-0.9,3.6-1.6c1-0.6,1.1-1.1,0.6-2.1c-1.5-2.7-1.2-3.9,1.1-5.9c0.7-0.6,1.5-1.2,2.3-1.7
		c1-0.8,1.6-1.7,1.4-3c-0.1-0.7,0.2-0.9,0.8-1c4.2-0.8,5-3.6,5.2-6.7c0.1-1.4,0.1-2.9,0-4.3c-0.1-1.9,0.7-3.3,2.4-4.2
		c0.7-0.4,1.2-0.7,0.8-1.7c-0.4-0.8,0.3-1.4,0.9-1.8c0.7-0.4,1.4-0.7,2.2-1c1-0.4,1.8-0.9,2.6-1.6c0.8-0.7,1-1.4,0.6-2.4
		c-0.3-0.7-0.8-1.4-0.7-2.3c0.7-0.2,1.5-0.1,2.2-0.1c20.9,0,41.7,0,62.6,0c0.2,0,0.3,0,0.5,0c1.1,0,1.1,0,1.1,1.2
		c0,3.8,0,7.7-0.2,11.5c-0.2,5.2-0.2,10.3-0.2,15.5c-0.1,10.4-0.2,20.9-0.4,31.3c-0.2,7.2-0.1,14.4-0.3,21.6
		c-0.2,8.7-0.1,17.4-0.3,26.1c-0.2,7.4-0.1,14.8-0.3,22.2c-0.4,14.9,0,29.8-0.2,44.6c0,2.7,0.1,5.4-0.3,8.1
		c-0.1,0.9-0.4,1.7-0.8,2.4c-0.3,0.6-0.8,1.1-1.4,1.3c-2.4,0.9-4.8,1.8-7.5,1.1c-2.6-0.7-5.2-1.4-7.7-2.7c-0.4,0.5,0.3,0.8,0.1,1.2
		c-0.6,0.2-1.2-0.2-1.8-0.3c-2.1-0.2-4,0.3-5.9,1.1c-1.9,0.8-3.8,1.7-5.9,1.9c-0.2,0-0.4,0-0.6,0c-0.4-0.5-0.3-0.9-0.2-1.4
		c0.1-0.5-0.3-0.8-0.6-1c-0.3-0.2-0.6-0.1-0.9,0.1c-0.3,0.2-0.1,0.5,0.1,0.7c0.5,0.5,0.6,1.1,0,1.5c-1.1,0.9-1.7,2.2-2.6,3.2
		c-1,1.3-1.1,1.4-2.9,1.4c-1.2,0-2.3-0.3-3.1-1.3c-0.4-0.5-0.8-1.1-1-1.8c-1.5-4-3.4-7.9-5.3-11.8c-1.6-3.3-1.4-6.8-0.6-10.3
		c0.4-1.9,1.1-3.7,1.9-5.4c0.2-0.3,0.4-0.6,0.3-1.2c-2.2-0.1-4.5-0.2-6.8-0.3c-8.2-0.2-16.3,0.1-24.5,0.2c-9,0.1-17.9,0.2-26.9,0
		c-0.5,0-1,0-1.8,0c0.4-0.7,1.2-1,1.1-1.7c0-0.7-0.4-1.2-0.7-1.7c-0.8-1.2-1-2.4-0.4-3.8c0.3-0.6,0.6-1.3-0.2-1.9
		c-0.5-0.4-0.8-0.7-0.5-1.3c0.3-0.6,0.8-1,1.5-1.1c0.5-0.1,1.1,0.5,1.4-0.2c0.3-0.6,0.2-1.4,0-2c-0.1-0.4-0.4-0.8-0.6-1.1
		c-0.2-0.4-0.4-0.8-0.3-1.2c0.1-0.8,0.9-1.2,1.5-0.6c0.4,0.3,0.6,0.7,1,1.2c0.2-0.7,0.1-1.3,0-1.9c-0.4-1.4-0.2-2.7,0.4-4
		c0.2-0.5,0.4-1,0.7-1.4c1.1-2,1.8-4.1,2.1-6.3c0.3-2,1.1-3.5,3.1-4.3c1.3-0.5,2-1.7,2.7-2.8c0.9-1.4,1.9-2.8,3.4-3.9
		c-0.6-0.6-1.1-1.1-1.8-1.9c1.6-0.5,2.7-1.3,3.7-2.5c0.2-0.2,0.1-0.5,0.2-0.8C19.2,116.2,19.1,116.5,18.8,116.6z"/>
	<path class="st0" d="M345.1,63.4c0.6-0.3,0.8-0.9,1.1-1.3c12.5-20.1,25-40.2,37.5-60.3c0.2-0.3,0.4-0.5,0.5-0.8
		c0.3-0.7,0.9-0.9,1.7-0.9c3.3,0,6.5,0,9.8,0c7.6,0,15.1,0,22.7,0c0.3,0,0.6,0,1,0c1.2,0,1.2,0,1.2,1.3c0,0.3,0,0.5,0,0.8
		c0,48.8,0,97.6,0,146.4c0,2.3,0.3,2.1-2,2.1c-9.7,0-19.3,0-29,0c-0.4,0-0.7,0-1.1,0c-0.6,0-0.9-0.2-0.9-0.8c0-0.5,0-1,0-1.4
		c0-31.1,0-62.3,0-93.4c0-0.6,0-1.3,0-2.1c-0.6,0.4-0.8,0.8-1,1.2c-13.4,20.3-26.8,40.6-40.1,60.9c-1.5,2.4-1.8,2.3-3.3,0
		c-13.2-20-26.4-40.1-39.6-60.1c-0.3-0.4-0.5-0.9-1.2-1.4c0,0.7,0,1.2,0,1.8c0,31.1,0,62.2,0,93.3c0,2.4,0.3,2.1-2.1,2.1
		c-9.4,0-18.8,0-28.2,0c-0.3,0-0.6,0-1,0c-1.2,0-1.2,0-1.2-1.3c0-0.3,0-0.6,0-1c0-48.7,0-97.4,0-146.1c0-2.5-0.3-2.2,2.2-2.2
		c10.7,0,21.3,0,32,0c1.2,0,1.8,0.4,2.4,1.3c12.6,20.3,25.2,40.7,37.9,61C344.7,62.7,344.9,63,345.1,63.4z"/>
	<path class="st0" d="M118,75.3c0-24.4,0-48.8,0-73.3c0-2.3-0.2-2,2.1-2c19.4,0,38.8,0,58.2,0c16.2,0,31.4,4,45,12.8
		c17.5,11.2,28.3,27.2,32.1,47.6c2.5,13.6,1.8,27.1-2.9,40.2c-7,19.9-20.6,33.8-39.6,42.5c-7.9,3.6-16.2,5.8-24.9,6.8
		c-3.2,0.4-6.5,0.6-9.7,0.6c-19.5,0-38.9,0-58.4,0c-2.2,0-2,0.3-2-2C118,124.1,118,99.7,118,75.3z"/>
	<path class="st0" d="M440.6,75.2c0-24.3,0-48.6,0-72.9c0-2.6-0.3-2.2,2.3-2.3c9.5,0,19.1,0,28.6,0c0.4,0,0.9,0,1.3,0
		c0.6,0,0.9,0.2,0.9,0.8c0,0.4,0,0.9,0,1.3c0,18.3,0,36.6,0,54.9c0,0.3,0,0.6,0,1c0,1.6,0,1.6,1.6,1.6c19.3,0,38.6,0,57.9,0
		c0.3,0,0.5,0,0.8,0c0.5,0,0.8-0.3,0.8-0.8c0-0.4,0-0.9,0-1.3c0-18.5,0-37,0-55.5c0-2.2-0.2-1.9,2-1.9c9.8,0,19.5,0,29.3,0
		c0.4,0,0.7,0,1.1,0c0.6,0,0.8,0.3,0.8,0.9c0,0.4,0,0.7,0,1.1c0,48.8,0,97.7,0,146.5c0,2.2,0.2,2-2,2c-9.8,0-19.5,0-29.3,0
		c-0.4,0-0.7,0-1.1,0c-0.6,0-0.9-0.2-0.8-0.8c0-0.4,0-0.9,0-1.3c0-18.7,0-37.3,0-56c0-0.3,0-0.5,0-0.8c0-1.7,0.1-1.6-1.6-1.6
		c-19.3,0-38.6,0-57.9,0c-0.3,0-0.5,0-0.8,0c-0.5,0-0.8,0.2-0.8,0.7c0,0.4,0,0.9,0,1.3c0,18.8,0,37.6,0,56.5c0,2.2,0.3,2-1.9,2
		c-9.8,0-19.6,0-29.4,0c-1.9,0-1.7,0.2-1.7-1.7C440.6,124.3,440.6,99.8,440.6,75.2z"/>
	<path class="st1" d="M18.8,116.6c0.1-0.4,0.3-0.9,0.5-1.3c0.8,0.5,0.8,0.5-0.1,1.7C19.1,116.8,19,116.7,18.8,116.6z"/>
	<path class="st2" d="M151.1,75.3c0-14.4,0-28.8,0-43.2c0-0.4,0-0.8,0-1.1c-0.1-0.9,0.3-1.1,1.1-1.1c8.8,0,17.6-0.1,26.4,0.1
		c8.5,0.2,16.5,2.3,23.8,7c9.1,5.8,14.8,14.1,17.8,24.4c1.8,6.2,2.2,12.6,1.7,19c-0.7,8.8-3.6,16.8-9,23.9
		c-5.9,7.8-13.9,12.6-23.4,14.9c-3.7,0.9-7.5,1.3-11.4,1.4c-8.5,0.2-17,0-25.4,0.1c-1.6,0-1.6,0-1.6-1.6
		C151.1,104.5,151.1,89.9,151.1,75.3z"/>
	<g>
		<path class="st0" d="M130.9,179.2v-10.1l-4.3,6.6h-0.1l-4.3-6.5v10h-3.3v-15.4h3.7l4,6.5l4-6.5h3.7v15.4H130.9z"/>
		<path class="st0" d="M137.7,166.2v-3h3.5v3H137.7z M137.8,179.2v-11.8h3.3v11.8H137.8z"/>
		<path class="st0" d="M148.4,179.5c-1.7,0-3.5-0.5-5.1-1.8l1.4-2.2c1.3,0.9,2.6,1.4,3.7,1.4c1,0,1.4-0.4,1.4-0.9v0
			c0-0.7-1.1-1-2.4-1.4c-1.6-0.5-3.5-1.3-3.5-3.5v0c0-2.4,1.9-3.7,4.3-3.7c1.5,0,3.1,0.5,4.4,1.4l-1.3,2.3c-1.2-0.7-2.3-1.1-3.2-1.1
			c-0.8,0-1.2,0.4-1.2,0.8v0c0,0.7,1.1,1,2.4,1.4c1.6,0.5,3.6,1.3,3.6,3.5v0C152.9,178.3,151,179.5,148.4,179.5z"/>
		<path class="st0" d="M159.7,179.5c-1.7,0-3.5-0.5-5.1-1.8l1.4-2.2c1.3,0.9,2.6,1.4,3.7,1.4c1,0,1.4-0.4,1.4-0.9v0
			c0-0.7-1.1-1-2.4-1.4c-1.6-0.5-3.5-1.3-3.5-3.5v0c0-2.4,1.9-3.7,4.3-3.7c1.5,0,3.1,0.5,4.4,1.4l-1.3,2.3c-1.2-0.7-2.3-1.1-3.2-1.1
			c-0.8,0-1.2,0.4-1.2,0.8v0c0,0.7,1.1,1,2.4,1.4c1.6,0.5,3.6,1.3,3.6,3.5v0C164.2,178.3,162.2,179.5,159.7,179.5z"/>
		<path class="st0" d="M166.6,166.2v-3h3.5v3H166.6z M166.7,179.2v-11.8h3.3v11.8H166.7z"/>
		<path class="st0" d="M177.8,179.5c-1.7,0-3.5-0.5-5.1-1.8l1.4-2.2c1.3,0.9,2.6,1.4,3.7,1.4c1,0,1.4-0.4,1.4-0.9v0
			c0-0.7-1.1-1-2.4-1.4c-1.6-0.5-3.5-1.3-3.5-3.5v0c0-2.4,1.9-3.7,4.3-3.7c1.5,0,3.1,0.5,4.4,1.4l-1.3,2.3c-1.2-0.7-2.3-1.1-3.2-1.1
			c-0.8,0-1.2,0.4-1.2,0.8v0c0,0.7,1.1,1,2.4,1.4c1.6,0.5,3.6,1.3,3.6,3.5v0C182.3,178.3,180.4,179.5,177.8,179.5z"/>
		<path class="st0" d="M188.6,179.5c-1.7,0-3.5-0.5-5.1-1.8l1.4-2.2c1.3,0.9,2.6,1.4,3.7,1.4c1,0,1.4-0.4,1.4-0.9v0
			c0-0.7-1.1-1-2.4-1.4c-1.6-0.5-3.5-1.3-3.5-3.5v0c0-2.4,1.9-3.7,4.3-3.7c1.5,0,3.1,0.5,4.4,1.4l-1.3,2.3c-1.2-0.7-2.3-1.1-3.2-1.1
			c-0.8,0-1.2,0.4-1.2,0.8v0c0,0.7,1.1,1,2.4,1.4c1.6,0.5,3.6,1.3,3.6,3.5v0C193.1,178.3,191.2,179.5,188.6,179.5z"/>
		<path class="st0" d="M196,166.2v-3h3.5v3H196z M196.1,179.2v-11.8h3.3v11.8H196.1z"/>
		<path class="st0" d="M209.6,179.5c-1.8,0-2.9-0.8-3.7-1.8v5.1h-3.3v-15.3h3.3v1.7c0.8-1.1,1.9-1.9,3.7-1.9c2.8,0,5.4,2.2,5.4,6.1
			v0C215,177.3,212.4,179.5,209.6,179.5z M211.7,173.3c0-2-1.3-3.3-2.9-3.3c-1.6,0-2.9,1.3-2.9,3.3v0c0,2,1.3,3.3,2.9,3.3
			C210.3,176.6,211.7,175.4,211.7,173.3L211.7,173.3z"/>
		<path class="st0" d="M224.5,179.5c-1.8,0-2.9-0.8-3.7-1.8v5.1h-3.3v-15.3h3.3v1.7c0.8-1.1,1.9-1.9,3.7-1.9c2.8,0,5.4,2.2,5.4,6.1
			v0C229.9,177.3,227.3,179.5,224.5,179.5z M226.5,173.3c0-2-1.3-3.3-2.9-3.3c-1.6,0-2.9,1.3-2.9,3.3v0c0,2,1.3,3.3,2.9,3.3
			C225.2,176.6,226.5,175.4,226.5,173.3L226.5,173.3z"/>
		<path class="st0" d="M232.4,166.2v-3h3.5v3H232.4z M232.5,179.2v-11.8h3.3v11.8H232.5z"/>
		<path class="st0" d="M252.4,179.2h-6v-15.4h6c4.8,0,8.2,3.3,8.2,7.7v0C260.5,175.9,257.2,179.2,252.4,179.2z M257,171.5
			c0-2.7-1.9-4.6-4.6-4.6h-2.6v9.3h2.6C255.1,176.2,257,174.3,257,171.5L257,171.5z"/>
		<path class="st0" d="M274.2,174.5H266c0.3,1.5,1.4,2.3,2.9,2.3c1.1,0,1.9-0.4,2.9-1.2l1.9,1.7c-1.1,1.4-2.7,2.2-4.8,2.2
			c-3.5,0-6.2-2.5-6.2-6.1v0c0-3.4,2.4-6.1,5.8-6.1c3.9,0,5.7,3.1,5.7,6.4v0C274.2,174,274.2,174.2,274.2,174.5z M268.5,169.9
			c-1.4,0-2.3,1-2.6,2.5h5C270.7,170.9,269.9,169.9,268.5,169.9z"/>
		<path class="st0" d="M283.7,179.5c-1.8,0-2.9-0.8-3.7-1.8v5.1h-3.3v-15.3h3.3v1.7c0.8-1.1,1.9-1.9,3.7-1.9c2.8,0,5.4,2.2,5.4,6.1
			v0C289.1,177.3,286.5,179.5,283.7,179.5z M285.7,173.3c0-2-1.3-3.3-2.9-3.3s-2.9,1.3-2.9,3.3v0c0,2,1.3,3.3,2.9,3.3
			S285.7,175.4,285.7,173.3L285.7,173.3z"/>
		<path class="st0" d="M298.9,179.2V178c-0.8,0.9-1.9,1.5-3.6,1.5c-2.2,0-4-1.3-4-3.6v0c0-2.6,2-3.8,4.8-3.8c1.2,0,2,0.2,2.9,0.5
			v-0.2c0-1.4-0.9-2.2-2.5-2.2c-1.3,0-2.2,0.2-3.3,0.6l-0.8-2.6c1.3-0.6,2.6-0.9,4.6-0.9c3.7,0,5.3,1.9,5.3,5.1v6.8H298.9z
			 M299,174.5c-0.6-0.3-1.3-0.4-2.1-0.4c-1.4,0-2.3,0.6-2.3,1.6v0c0,0.9,0.7,1.4,1.8,1.4c1.6,0,2.6-0.9,2.6-2.1V174.5z"/>
		<path class="st0" d="M311.9,170.7c-2.2,0-3.6,1.3-3.6,4.2v4.4H305v-11.8h3.3v2.4c0.7-1.6,1.8-2.7,3.8-2.6v3.5H311.9z"/>
		<path class="st0" d="M318.2,179.4c-2,0-3.4-0.8-3.4-3.5v-5.6h-1.4v-2.9h1.4v-3h3.3v3h2.8v2.9h-2.8v5c0,0.8,0.3,1.1,1.1,1.1
			c0.6,0,1.2-0.2,1.7-0.4v2.7C320.1,179.2,319.3,179.4,318.2,179.4z"/>
		<path class="st0" d="M338.4,179.2v-6.6c0-1.6-0.7-2.4-2-2.4c-1.3,0-2,0.8-2,2.4v6.6h-3.3v-6.6c0-1.6-0.7-2.4-2-2.4
			c-1.3,0-2,0.8-2,2.4v6.6h-3.3v-11.8h3.3v1.7c0.8-1,1.8-1.9,3.5-1.9c1.5,0,2.7,0.7,3.3,1.9c1-1.2,2.3-1.9,3.9-1.9
			c2.5,0,4,1.5,4,4.3v7.7H338.4z"/>
		<path class="st0" d="M355.6,174.5h-8.2c0.3,1.5,1.4,2.3,2.9,2.3c1.1,0,1.9-0.4,2.9-1.2l1.9,1.7c-1.1,1.4-2.7,2.2-4.8,2.2
			c-3.5,0-6.2-2.5-6.2-6.1v0c0-3.4,2.4-6.1,5.8-6.1c3.9,0,5.7,3.1,5.7,6.4v0C355.7,174,355.6,174.2,355.6,174.5z M349.9,169.9
			c-1.4,0-2.3,1-2.6,2.5h5C352.2,170.9,351.3,169.9,349.9,169.9z"/>
		<path class="st0" d="M365.6,179.2v-6.6c0-1.6-0.7-2.4-2-2.4c-1.3,0-2.1,0.8-2.1,2.4v6.6h-3.3v-11.8h3.3v1.7c0.8-1,1.8-1.9,3.5-1.9
			c2.5,0,4,1.7,4,4.4v7.6H365.6z"/>
		<path class="st0" d="M375.8,179.4c-2,0-3.4-0.8-3.4-3.5v-5.6H371v-2.9h1.4v-3h3.3v3h2.8v2.9h-2.8v5c0,0.8,0.3,1.1,1.1,1.1
			c0.6,0,1.2-0.2,1.7-0.4v2.7C377.8,179.2,377,179.4,375.8,179.4z"/>
		<path class="st0" d="M393.4,179.5c-3.7,0-6.4-2.7-6.4-6.1v0c0-3.4,2.7-6.1,6.4-6.1c3.7,0,6.4,2.7,6.4,6.1v0
			C399.8,176.8,397.1,179.5,393.4,179.5z M396.5,173.4c0-1.7-1.3-3.3-3.1-3.3c-1.9,0-3.1,1.5-3.1,3.2v0c0,1.7,1.3,3.3,3.1,3.3
			C395.3,176.6,396.5,175.2,396.5,173.4L396.5,173.4z"/>
		<path class="st0" d="M407.3,165.8c-0.8,0-1.2,0.4-1.2,1.3v0.5h2.7v2.7h-2.7v8.9h-3.3v-8.9h-1.4v-2.8h1.4v-0.7
			c0-2.6,1.3-3.8,3.7-3.8c1.1,0,1.8,0.1,2.4,0.3v2.8C408.3,166,407.9,165.8,407.3,165.8z"/>
		<path class="st0" d="M430,179.2v-10.1l-4.3,6.6h-0.1l-4.3-6.5v10H418v-15.4h3.7l4,6.5l4-6.5h3.7v15.4H430z"/>
		<path class="st0" d="M447.7,174.5h-8.2c0.3,1.5,1.4,2.3,2.9,2.3c1.1,0,1.9-0.4,2.9-1.2l1.9,1.7c-1.1,1.4-2.7,2.2-4.8,2.2
			c-3.5,0-6.2-2.5-6.2-6.1v0c0-3.4,2.4-6.1,5.8-6.1c3.9,0,5.7,3.1,5.7,6.4v0C447.7,174,447.7,174.2,447.7,174.5z M442,169.9
			c-1.4,0-2.3,1-2.6,2.5h5C444.3,170.9,443.4,169.9,442,169.9z"/>
		<path class="st0" d="M458.1,179.2v-6.6c0-1.6-0.7-2.4-2-2.4c-1.3,0-2.1,0.8-2.1,2.4v6.6h-3.3v-11.8h3.3v1.7c0.8-1,1.8-1.9,3.5-1.9
			c2.5,0,4,1.7,4,4.4v7.6H458.1z"/>
		<path class="st0" d="M468.4,179.4c-2,0-3.4-0.8-3.4-3.5v-5.6h-1.4v-2.9h1.4v-3h3.3v3h2.8v2.9h-2.8v5c0,0.8,0.3,1.1,1.1,1.1
			c0.6,0,1.2-0.2,1.7-0.4v2.7C470.3,179.2,469.5,179.4,468.4,179.4z"/>
		<path class="st0" d="M480.4,179.2V178c-0.8,0.9-1.9,1.5-3.6,1.5c-2.2,0-4-1.3-4-3.6v0c0-2.6,2-3.8,4.8-3.8c1.2,0,2,0.2,2.9,0.5
			v-0.2c0-1.4-0.9-2.2-2.5-2.2c-1.3,0-2.2,0.2-3.3,0.6l-0.8-2.6c1.3-0.6,2.6-0.9,4.6-0.9c3.7,0,5.3,1.9,5.3,5.1v6.8H480.4z
			 M480.5,174.5c-0.6-0.3-1.3-0.4-2.1-0.4c-1.4,0-2.3,0.6-2.3,1.6v0c0,0.9,0.7,1.4,1.8,1.4c1.6,0,2.6-0.9,2.6-2.1V174.5z"/>
		<path class="st0" d="M487.1,179.2v-16.1h3.3v16.1H487.1z"/>
		<path class="st0" d="M510.2,179.2v-6.2h-6.2v6.2h-3.4v-15.4h3.4v6.1h6.2v-6.1h3.4v15.4H510.2z"/>
		<path class="st0" d="M527.9,174.5h-8.2c0.3,1.5,1.4,2.3,2.9,2.3c1.1,0,1.9-0.4,2.9-1.2l1.9,1.7c-1.1,1.4-2.7,2.2-4.8,2.2
			c-3.5,0-6.2-2.5-6.2-6.1v0c0-3.4,2.4-6.1,5.8-6.1c3.9,0,5.7,3.1,5.7,6.4v0C527.9,174,527.9,174.2,527.9,174.5z M522.2,169.9
			c-1.4,0-2.3,1-2.6,2.5h5C524.5,170.9,523.6,169.9,522.2,169.9z"/>
		<path class="st0" d="M537.8,179.2V178c-0.8,0.9-1.9,1.5-3.6,1.5c-2.2,0-4-1.3-4-3.6v0c0-2.6,2-3.8,4.8-3.8c1.2,0,2,0.2,2.9,0.5
			v-0.2c0-1.4-0.9-2.2-2.5-2.2c-1.3,0-2.2,0.2-3.3,0.6l-0.8-2.6c1.3-0.6,2.6-0.9,4.6-0.9c3.7,0,5.3,1.9,5.3,5.1v6.8H537.8z
			 M537.8,174.5c-0.6-0.3-1.3-0.4-2.1-0.4c-1.4,0-2.3,0.6-2.3,1.6v0c0,0.9,0.7,1.4,1.8,1.4c1.6,0,2.6-0.9,2.6-2.1V174.5z"/>
		<path class="st0" d="M544,179.2v-16.1h3.3v16.1H544z"/>
		<path class="st0" d="M554.5,179.4c-2,0-3.4-0.8-3.4-3.5v-5.6h-1.4v-2.9h1.4v-3h3.3v3h2.8v2.9h-2.8v5c0,0.8,0.3,1.1,1.1,1.1
			c0.6,0,1.2-0.2,1.7-0.4v2.7C556.4,179.2,555.6,179.4,554.5,179.4z"/>
		<path class="st0" d="M567.1,179.2v-6.6c0-1.6-0.7-2.4-2-2.4c-1.3,0-2.1,0.8-2.1,2.4v6.6h-3.3v-16.1h3.3v5.9c0.8-1,1.8-1.9,3.5-1.9
			c2.5,0,4,1.7,4,4.4v7.6H567.1z"/>
	</g>
	<g>
		<path class="st0" d="M14,222l2.3-2c1.1,1.2,2.3,1.8,3.9,1.8c1.2,0,2.1-0.6,2.1-1.5c0-0.7-0.5-1.1-2.4-1.8
			c-1.8-0.7-3.4-1.7-3.4-3.8c0-2.9,2.6-4.6,5.6-4.6c2.4,0,4.1,0.8,5.2,2.1l-2.1,2.1c-1.1-1-2-1.5-3.4-1.5c-1.3,0-2,0.7-2,1.4
			c0,0.7,0.6,1.1,2.5,1.8c1.9,0.8,3.4,1.7,3.4,3.8c0,2.9-2.6,4.7-5.6,4.7C17.4,224.6,15.3,223.7,14,222z"/>
		<path class="st0" d="M27.7,221.5c0-0.6,0.2-1.4,0.4-2l1.5-5.8h3l-1.6,5.9c-0.1,0.3-0.1,0.7-0.1,1c0,0.9,0.5,1.3,1.5,1.3
			c1.2,0,2-0.9,2.3-2.1l1.6-6h3l-2.9,10.7h-3l0.3-1.1c-0.8,0.7-1.7,1.3-2.9,1.3C28.9,224.6,27.7,223.4,27.7,221.5z"/>
		<path class="st0" d="M42.5,213.7h3l-0.3,1.2c0.9-0.9,1.8-1.4,3-1.4c2.3,0,4.1,1.7,4.1,4.6c0,3.8-2.9,6.5-5.9,6.5
			c-1.7,0-2.7-0.7-3.4-1.8l-1.3,4.8h-3L42.5,213.7z M49.2,218.3c0-1.4-0.9-2.2-2.2-2.2c-1.7,0-3.2,1.7-3.2,3.7c0,1.4,1,2.3,2.3,2.3
			C47.7,222.1,49.2,220.5,49.2,218.3z"/>
		<path class="st0" d="M56.4,213.7h3l-0.3,1.2c0.9-0.9,1.8-1.4,3-1.4c2.3,0,4.1,1.7,4.1,4.6c0,3.8-2.9,6.5-5.9,6.5
			c-1.7,0-2.7-0.7-3.4-1.8l-1.3,4.8h-3L56.4,213.7z M63.1,218.3c0-1.4-0.9-2.2-2.2-2.2c-1.7,0-3.2,1.7-3.2,3.7c0,1.4,1,2.3,2.3,2.3
			C61.6,222.1,63.1,220.5,63.1,218.3z"/>
		<path class="st0" d="M67.9,219.7c0-3.2,2.8-6.2,6.2-6.2c3.2,0,5.2,2.1,5.2,5c0,3.2-2.8,6.2-6.2,6.2
			C69.9,224.7,67.9,222.6,67.9,219.7z M76.3,218.5c0-1.6-0.9-2.4-2.3-2.4c-1.9,0-3.1,2-3.1,3.5c0,1.6,0.9,2.4,2.3,2.4
			C75.1,222.1,76.3,220.1,76.3,218.5z"/>
		<path class="st0" d="M82.9,213.7h3l-0.6,2.2c1.1-1.6,2.3-2.5,4.1-2.4l-0.9,3.2h-0.2c-2,0-3.6,1.2-4.3,3.9l-1,3.8h-3L82.9,213.7z"
			/>
		<path class="st0" d="M90,222.5c0-0.4,0.1-0.9,0.2-1.3l1.3-4.9h-1.3l0.7-2.6h1.3l0.7-2.7h3l-0.7,2.7h2.5l-0.7,2.6h-2.5l-1.2,4.5
			c0,0.2-0.1,0.4-0.1,0.5c0,0.4,0.3,0.6,0.8,0.6c0.5,0,1.1-0.1,1.6-0.3l-0.7,2.6c-0.6,0.3-1.4,0.4-2.2,0.4
			C90.9,224.6,90,223.7,90,222.5z"/>
		<path class="st0" d="M100.5,213.7h3l-2.9,10.7h-3L100.5,213.7z M101.5,209.8h3.2l-0.7,2.7h-3.2L101.5,209.8z"/>
		<path class="st0" d="M106.4,213.7h3l-0.3,1.1c0.8-0.7,1.7-1.3,2.9-1.3c1.9,0,3.2,1.2,3.2,3.1c0,0.6-0.2,1.4-0.4,2l-1.5,5.8h-3
			l1.6-5.9c0.1-0.3,0.1-0.7,0.1-1c0-0.9-0.5-1.3-1.5-1.3c-1.2,0-2,0.9-2.3,2.1l-1.6,6h-3L106.4,213.7z"/>
		<path class="st0" d="M115.4,226.2l1.6-2.1c1.1,0.7,2.5,1.2,3.9,1.2c1,0,1.7-0.3,2.3-0.9c0.5-0.5,0.7-1.1,1-1.9l0.1-0.4
			c-1.1,1-2,1.4-3.4,1.4c-2.1,0-4-1.3-4-3.7c0-3.6,2.9-6.3,5.9-6.3c1.8,0,2.7,0.9,3.3,1.9l0.4-1.7h3l-2.3,8.6c-0.6,2.2-1,3-1.9,3.9
			c-1,1-2.3,1.5-4.3,1.5C118.9,227.7,116.8,227.1,115.4,226.2z M125.2,218c0-1.2-0.8-2-2.1-2c-1.7,0-3.1,1.5-3.1,3.2
			c0,1.3,0.8,1.9,2,1.9C123.7,221.1,125.2,219.7,125.2,218z"/>
		<path class="st0" d="M136,221.7c0-2.5,2-3.9,4.6-3.9c1.2,0,2.1,0.2,3,0.5l0-0.1c0.1-0.2,0.1-0.5,0.1-0.8c0-0.7-0.5-1.3-2-1.3
			c-1,0-2.1,0.3-2.9,0.6l-0.5-2.4c1.1-0.5,2.5-0.8,4-0.8c2.9,0,4.3,1.2,4.3,3.3c0,0.6-0.1,1.1-0.2,1.6l-1.6,5.9H142l0.3-1.2
			c-0.9,0.9-1.9,1.4-3.2,1.4C137.2,224.6,136,223.4,136,221.7z M143.1,220.4l0.1-0.3c-0.5-0.2-1.3-0.4-2-0.4c-1.3,0-2.2,0.6-2.2,1.7
			c0,0.7,0.5,1.1,1.4,1.1C141.7,222.5,142.8,221.5,143.1,220.4z"/>
		<path class="st0" d="M158.4,210.4h5.4c3.3,0,4.7,1.6,4.7,3.4c0,1.9-1.2,3.1-3,3.5c1.2,0.5,2,1.4,2,2.8c0,2.5-2.1,4.3-6,4.3h-6.9
			L158.4,210.4z M162,221.7c1.5,0,2.5-0.7,2.5-1.8c0-0.8-0.7-1.3-1.9-1.3h-3.4l-0.8,3.1H162z M163,216.1c1.6,0,2.5-0.5,2.5-1.7
			c0-0.7-0.6-1.3-1.9-1.3h-2.9l-0.8,3H163z"/>
		<path class="st0" d="M174.9,222.2c0.8,0,1.5-0.2,2.4-0.9l1.4,1.9c-1,0.8-2.3,1.4-4.1,1.4c-3.1,0-5-1.8-5-4.8
			c0-3.1,2.5-6.4,6.4-6.4c2.8,0,4.4,1.8,4.4,4.2c0,0.8-0.2,1.6-0.5,2.4h-7.3C172.5,221.4,173.3,222.2,174.9,222.2z M177.3,218.2
			c0.1-0.2,0.1-0.4,0.1-0.7c0-0.9-0.5-1.6-1.8-1.6c-1.4,0-2.5,0.9-3,2.3H177.3z"/>
		<path class="st0" d="M182.4,222.5c0-0.4,0.1-0.9,0.2-1.3l1.3-4.9h-1.3l0.7-2.6h1.3l0.7-2.7h3l-0.7,2.7h2.5l-0.7,2.6h-2.5l-1.2,4.5
			c0,0.2-0.1,0.4-0.1,0.5c0,0.4,0.3,0.6,0.8,0.6c0.5,0,1.1-0.1,1.6-0.3l-0.7,2.6c-0.6,0.3-1.4,0.4-2.2,0.4
			C183.3,224.6,182.4,223.7,182.4,222.5z"/>
		<path class="st0" d="M190.7,222.5c0-0.4,0.1-0.9,0.2-1.3l1.3-4.9h-1.3l0.7-2.6h1.3l0.7-2.7h3l-0.7,2.7h2.5l-0.7,2.6h-2.5l-1.2,4.5
			c0,0.2-0.1,0.4-0.1,0.5c0,0.4,0.3,0.6,0.8,0.6c0.5,0,1.1-0.1,1.6-0.3l-0.7,2.6c-0.6,0.3-1.4,0.4-2.2,0.4
			C191.6,224.6,190.7,223.7,190.7,222.5z"/>
		<path class="st0" d="M204.2,222.2c0.8,0,1.5-0.2,2.4-0.9l1.4,1.9c-1,0.8-2.3,1.4-4.1,1.4c-3.1,0-5-1.8-5-4.8
			c0-3.1,2.5-6.4,6.4-6.4c2.8,0,4.4,1.8,4.4,4.2c0,0.8-0.2,1.6-0.5,2.4h-7.3C201.9,221.4,202.6,222.2,204.2,222.2z M206.7,218.2
			c0.1-0.2,0.1-0.4,0.1-0.7c0-0.9-0.5-1.6-1.8-1.6c-1.4,0-2.5,0.9-3,2.3H206.7z"/>
		<path class="st0" d="M213,213.7h3l-0.6,2.2c1.1-1.6,2.3-2.5,4.1-2.4l-0.9,3.2h-0.2c-2,0-3.6,1.2-4.3,3.9l-1,3.8h-3L213,213.7z"/>
		<path class="st0" d="M231.2,213.3h-4.3l0.8-2.8h11.6l-0.8,2.8h-4.3l-3,11.2h-3.1L231.2,213.3z"/>
		<path class="st0" d="M238.6,219.7c0-3.2,2.8-6.2,6.2-6.2c3.2,0,5.2,2.1,5.2,5c0,3.2-2.8,6.2-6.2,6.2
			C240.6,224.7,238.6,222.6,238.6,219.7z M247,218.5c0-1.6-0.9-2.4-2.3-2.4c-1.9,0-3.1,2-3.1,3.5c0,1.6,0.9,2.4,2.3,2.4
			C245.8,222.1,247,220.1,247,218.5z"/>
		<path class="st0" d="M254,213.7h3l-0.3,1.1c0.8-0.7,1.6-1.3,2.8-1.3c1.5,0,2.4,0.8,2.8,1.9c0.9-1.1,2.2-1.9,3.8-1.9
			c1.9,0,3.1,1.2,3.1,3.1c0,0.6-0.2,1.4-0.4,2l-1.5,5.8h-3l1.6-5.9c0.1-0.3,0.1-0.7,0.1-1c0-0.9-0.5-1.3-1.4-1.3
			c-1.2,0-1.9,0.9-2.3,2.1l-1.6,6h-3l1.6-5.9c0.1-0.3,0.1-0.7,0.1-1c0-0.9-0.5-1.3-1.4-1.3c-1.2,0-1.9,0.9-2.3,2.1l-1.6,6h-3
			L254,213.7z"/>
		<path class="st0" d="M271.1,219.7c0-3.2,2.8-6.2,6.2-6.2c3.2,0,5.2,2.1,5.2,5c0,3.2-2.8,6.2-6.2,6.2
			C273,224.7,271.1,222.6,271.1,219.7z M279.4,218.5c0-1.6-0.9-2.4-2.3-2.4c-1.9,0-3.1,2-3.1,3.5c0,1.6,0.9,2.4,2.3,2.4
			C278.2,222.1,279.4,220.1,279.4,218.5z"/>
		<path class="st0" d="M286.1,213.7h3l-0.6,2.2c1.1-1.6,2.3-2.5,4.1-2.4l-0.9,3.2h-0.2c-2,0-3.6,1.2-4.3,3.9l-1,3.8h-3L286.1,213.7z
			"/>
		<path class="st0" d="M294.8,213.7h3l-0.6,2.2c1.1-1.6,2.3-2.5,4.1-2.4l-0.9,3.2h-0.2c-2,0-3.6,1.2-4.3,3.9l-1,3.8h-3L294.8,213.7z
			"/>
		<path class="st0" d="M301.6,219.7c0-3.2,2.8-6.2,6.2-6.2c3.2,0,5.2,2.1,5.2,5c0,3.2-2.8,6.2-6.2,6.2
			C303.5,224.7,301.6,222.6,301.6,219.7z M309.9,218.5c0-1.6-0.9-2.4-2.3-2.4c-1.9,0-3.1,2-3.1,3.5c0,1.6,0.9,2.4,2.3,2.4
			C308.7,222.1,309.9,220.1,309.9,218.5z"/>
		<path class="st0" d="M315.6,213.7h3.1l0,6.5l3.8-6.5h2.6l0.3,6.6l3.5-6.5h3l-6.2,10.8h-2.7l-0.3-6.6l-3.9,6.6H316L315.6,213.7z"/>
		<path class="st0" d="M332.2,221.2h3.2l-0.9,3.2h-3.2L332.2,221.2z"/>
		<path class="st0" d="M338.6,221.2h3.2l-0.9,3.2h-3.2L338.6,221.2z"/>
		<path class="st0" d="M345.4,221.2h3.2l-0.9,3.2h-3.2L345.4,221.2z"/>
		<path class="st0" d="M352.5,218.5c0-4.2,3.4-8.3,8.4-8.3c3.9,0,6.4,2.7,6.4,6.2c0,4.2-3.4,8.3-8.4,8.3
			C355,224.7,352.5,222,352.5,218.5z M364.1,216.6c0-2.1-1.3-3.6-3.6-3.6c-2.9,0-4.9,2.8-4.9,5.2c0,2.1,1.3,3.6,3.6,3.6
			C362.2,221.8,364.1,219,364.1,216.6z"/>
		<path class="st0" d="M370.6,213.7h3l-0.3,1.1c0.8-0.7,1.7-1.3,2.9-1.3c1.9,0,3.2,1.2,3.2,3.1c0,0.6-0.2,1.4-0.4,2l-1.5,5.8h-3
			l1.6-5.9c0.1-0.3,0.1-0.7,0.1-1c0-0.9-0.5-1.3-1.5-1.3c-1.2,0-2,0.9-2.3,2.1l-1.6,6h-3L370.6,213.7z"/>
		<path class="st0" d="M386.3,222.2c0.8,0,1.5-0.2,2.4-0.9l1.4,1.9c-1,0.8-2.3,1.4-4.1,1.4c-3.1,0-5-1.8-5-4.8
			c0-3.1,2.5-6.4,6.4-6.4c2.8,0,4.4,1.8,4.4,4.2c0,0.8-0.2,1.6-0.5,2.4h-7.3C383.9,221.4,384.7,222.2,386.3,222.2z M388.8,218.2
			c0.1-0.2,0.1-0.4,0.1-0.7c0-0.9-0.5-1.6-1.8-1.6c-1.4,0-2.5,0.9-3,2.3H388.8z"/>
		<path class="st0" d="M403.1,210.4h4.4c2,0,3.4,0.4,4.4,1.4c0.7,0.7,1.1,1.7,1.1,2.9c0,3.5-3,5.5-6.8,5.5h-2.7l-1.1,4.2h-3.1
			L403.1,210.4z M406.4,217.5c2,0,3.4-0.9,3.4-2.5c0-0.5-0.2-0.9-0.5-1.2c-0.4-0.4-1-0.6-1.9-0.6h-2l-1.1,4.3H406.4z"/>
		<path class="st0" d="M418.7,222.2c0.8,0,1.5-0.2,2.4-0.9l1.4,1.9c-1,0.8-2.3,1.4-4.1,1.4c-3.1,0-5-1.8-5-4.8
			c0-3.1,2.5-6.4,6.4-6.4c2.8,0,4.4,1.8,4.4,4.2c0,0.8-0.2,1.6-0.5,2.4h-7.3C416.4,221.4,417.1,222.2,418.7,222.2z M421.2,218.2
			c0.1-0.2,0.1-0.4,0.1-0.7c0-0.9-0.5-1.6-1.8-1.6c-1.4,0-2.5,0.9-3,2.3H421.2z"/>
		<path class="st0" d="M427.9,213.7h3l-0.6,2.2c1.1-1.6,2.3-2.5,4.1-2.4l-0.9,3.2h-0.2c-2,0-3.6,1.2-4.3,3.9l-1,3.8h-3L427.9,213.7z
			"/>
		<path class="st0" d="M433,222.7l1.8-1.8c1.1,1.1,2.3,1.4,3.3,1.4c0.8,0,1.3-0.3,1.3-0.9c0-0.4-0.5-0.7-1.2-1
			c-1.7-0.7-3.1-1.4-3.1-3.1c0-2.1,1.6-3.8,4.3-3.8c1.7,0,3.3,0.8,4.2,1.5l-1.6,1.9c-1-0.8-1.9-1.1-2.8-1.1c-0.7,0-1.2,0.3-1.2,0.9
			c0,0.4,0.5,0.7,1.4,1.1c1.4,0.6,2.9,1.4,2.9,3c0,2.3-1.8,3.8-4.4,3.8C436.2,224.7,434.3,224,433,222.7z"/>
		<path class="st0" d="M444.7,219.7c0-3.2,2.8-6.2,6.2-6.2c3.2,0,5.2,2.1,5.2,5c0,3.2-2.8,6.2-6.2,6.2
			C446.7,224.7,444.7,222.6,444.7,219.7z M453.1,218.5c0-1.6-0.9-2.4-2.3-2.4c-1.9,0-3.1,2-3.1,3.5c0,1.6,0.9,2.4,2.3,2.4
			C451.9,222.1,453.1,220.1,453.1,218.5z"/>
		<path class="st0" d="M459.7,213.7h3l-0.3,1.1c0.8-0.7,1.7-1.3,2.9-1.3c1.9,0,3.2,1.2,3.2,3.1c0,0.6-0.2,1.4-0.4,2l-1.5,5.8h-3
			l1.6-5.9c0.1-0.3,0.1-0.7,0.1-1c0-0.9-0.5-1.3-1.5-1.3c-1.2,0-2,0.9-2.3,2.1l-1.6,6h-3L459.7,213.7z"/>
		<path class="st0" d="M475.9,221.7c0-2.5,2-3.9,4.6-3.9c1.2,0,2.1,0.2,3,0.5l0-0.1c0.1-0.2,0.1-0.5,0.1-0.8c0-0.7-0.5-1.3-2-1.3
			c-1,0-2.1,0.3-2.9,0.6l-0.5-2.4c1.1-0.5,2.5-0.8,4-0.8c2.9,0,4.3,1.2,4.3,3.3c0,0.6-0.1,1.1-0.2,1.6l-1.6,5.9h-2.9l0.3-1.2
			c-0.9,0.9-1.9,1.4-3.2,1.4C477.1,224.6,475.9,223.4,475.9,221.7z M483,220.4l0.1-0.3c-0.5-0.2-1.3-0.4-2-0.4
			c-1.3,0-2.2,0.6-2.2,1.7c0,0.7,0.5,1.1,1.4,1.1C481.5,222.5,482.6,221.5,483,220.4z"/>
		<path class="st0" d="M488.8,222.5c0-0.4,0.1-0.9,0.2-1.3l1.3-4.9H489l0.7-2.6h1.3l0.7-2.7h3l-0.7,2.7h2.5l-0.7,2.6h-2.5l-1.2,4.5
			c0,0.2-0.1,0.4-0.1,0.5c0,0.4,0.3,0.6,0.8,0.6c0.5,0,1.1-0.1,1.6-0.3l-0.7,2.6c-0.6,0.3-1.4,0.4-2.2,0.4
			C489.7,224.6,488.8,223.7,488.8,222.5z"/>
		<path class="st0" d="M502.5,221.7c0-2.5,2-3.9,4.6-3.9c1.2,0,2.1,0.2,3,0.5l0-0.1c0.1-0.2,0.1-0.5,0.1-0.8c0-0.7-0.5-1.3-2-1.3
			c-1,0-2.1,0.3-2.9,0.6l-0.5-2.4c1.1-0.5,2.5-0.8,4-0.8c2.9,0,4.3,1.2,4.3,3.3c0,0.6-0.1,1.1-0.2,1.6l-1.6,5.9h-2.9l0.3-1.2
			c-0.9,0.9-1.9,1.4-3.2,1.4C503.8,224.6,502.5,223.4,502.5,221.7z M509.6,220.4l0.1-0.3c-0.5-0.2-1.3-0.4-2-0.4
			c-1.3,0-2.2,0.6-2.2,1.7c0,0.7,0.5,1.1,1.4,1.1C508.2,222.5,509.3,221.5,509.6,220.4z"/>
		<path class="st0" d="M526.7,213.3h-4.3l0.8-2.8h11.6l-0.8,2.8h-4.3l-3,11.2h-3.1L526.7,213.3z"/>
		<path class="st0" d="M536.1,213.7h3l-2.9,10.7h-3L536.1,213.7z M537.1,209.8h3.2l-0.7,2.7h-3.2L537.1,209.8z"/>
		<path class="st0" d="M542.4,213.7h3l-0.3,1.1c0.8-0.7,1.6-1.3,2.8-1.3c1.5,0,2.4,0.8,2.8,1.9c0.9-1.1,2.2-1.9,3.8-1.9
			c1.9,0,3.1,1.2,3.1,3.1c0,0.6-0.2,1.4-0.4,2l-1.5,5.8h-3l1.6-5.9c0.1-0.3,0.1-0.7,0.1-1c0-0.9-0.5-1.3-1.4-1.3
			c-1.2,0-1.9,0.9-2.3,2.1l-1.6,6h-3l1.6-5.9c0.1-0.3,0.1-0.7,0.1-1c0-0.9-0.5-1.3-1.4-1.3c-1.2,0-1.9,0.9-2.3,2.1l-1.6,6h-3
			L542.4,213.7z"/>
		<path class="st0" d="M564.7,222.2c0.8,0,1.5-0.2,2.4-0.9l1.4,1.9c-1,0.8-2.3,1.4-4.1,1.4c-3.1,0-5-1.8-5-4.8
			c0-3.1,2.5-6.4,6.4-6.4c2.8,0,4.4,1.8,4.4,4.2c0,0.8-0.2,1.6-0.5,2.4h-7.3C562.3,221.4,563.1,222.2,564.7,222.2z M567.2,218.2
			c0.1-0.2,0.1-0.4,0.1-0.7c0-0.9-0.5-1.6-1.8-1.6c-1.4,0-2.5,0.9-3,2.3H567.2z"/>
	</g>
</g>
</svg>
