<?xml version="1.0" encoding="UTF-8"?>
<svg width="41px" height="40px" viewBox="0 0 41 40" version="1.1" xmlns="http://www.w3.org/2000/svg" xmlns:xlink="http://www.w3.org/1999/xlink">
    <!-- Generator: Sketch 48.1 (47250) - http://www.bohemiancoding.com/sketch -->
    <title>Page 1</title>
    <desc>Created with Sketch.</desc>
    <defs>
        <polygon id="path-1" points="0 0.0001 40.0218 0.0001 40.0218 40 0 40"></polygon>
    </defs>
    <g id="Event" stroke="none" stroke-width="1" fill="none" fill-rule="evenodd" transform="translate(-633.000000, -130.000000)">
        <g id="Group-6" transform="translate(633.000000, 122.000000)">
            <g id="Page-1" transform="translate(0.000000, 8.000000)">
                <g id="Group-3">
                    <mask id="mask-2" fill="white">
                        <use xlink:href="#path-1"></use>
                    </mask>
                    <g id="Clip-2"></g>
                    <path d="M35.2298,28.8191 C33.6598,31.5121 31.5068,33.6501 28.7968,35.2301 C26.1028,36.8011 23.1508,37.5931 19.9788,37.5931 C17.5938,37.5931 15.3178,37.1341 13.1508,36.1931 C10.9848,35.2521 9.1138,34.0151 7.5498,32.4511 C5.9848,30.8861 4.7388,28.9971 3.8078,26.8271 C2.8788,24.6651 2.4298,22.3631 2.4298,19.9781 C2.4298,16.8051 3.2088,13.8681 4.7708,11.1821 C6.3388,8.4861 8.4908,6.3461 11.1828,4.7701 C13.8728,3.1951 16.8058,2.4071 19.9778,2.4071 C23.1508,2.4071 26.1028,3.2001 28.7958,4.7701 C31.5058,6.3511 33.6538,8.4901 35.2298,11.1821 C36.8048,13.8731 37.5928,16.8051 37.5928,19.9781 C37.5928,23.1511 36.8098,26.1081 35.2298,28.8191 M38.4238,12.2101 C36.3148,7.2911 32.7288,3.7131 27.7688,1.5971 C25.2888,0.5401 22.6918,0.0001 19.9778,0.0001 C17.2648,0.0001 14.6868,0.5351 12.2098,1.5971 C7.2908,3.7071 3.6888,7.2831 1.5758,12.2101 C0.5168,14.6791 -0.0002,17.2651 -0.0002,19.9781 C-0.0002,22.6921 0.5168,25.2991 1.5758,27.7681 C3.6888,32.6951 7.2918,36.2921 12.2098,38.4031 C14.6878,39.4651 17.2648,40.0001 19.9778,40.0001 C22.6908,40.0001 25.2888,39.4601 27.7678,38.4031 C32.7278,36.2871 36.3138,32.6871 38.4238,27.7681 C39.4868,25.2911 40.0218,22.6921 40.0218,19.9781 C40.0218,17.2651 39.4878,14.6871 38.4238,12.2101" id="Fill-1" fill="#7F8184" mask="url(#mask-2)"></path>
                </g>
                <path d="M21.2474,19.803 L21.2474,8.468 C21.2474,7.79 20.6564,7.243 19.9774,7.243 C19.3434,7.243 18.7744,7.79 18.7744,8.468 L18.7744,19.978 C18.7744,20 18.8184,20.088 18.8184,20.153 C18.7744,20.547 18.8844,20.875 19.1464,21.138 L25.6894,27.681 C26.1274,28.118 26.9364,28.118 27.3744,27.681 C27.8774,27.178 27.8444,26.448 27.3744,25.974 L21.2474,19.803 Z" id="Fill-4" fill="#7F8184"></path>
            </g>
        </g>
    </g>
</svg>