<?xml version="1.0" encoding="UTF-8"?>
<svg width="20px" height="20px" viewBox="0 0 20 20" version="1.1" xmlns="http://www.w3.org/2000/svg" xmlns:xlink="http://www.w3.org/1999/xlink">
    <!-- Generator: Sketch 48.1 (47250) - http://www.bohemiancoding.com/sketch -->
    <title>Group 4</title>
    <desc>Created with Sketch.</desc>
    <defs>
        <polygon id="path-1" points="0 5e-05 19.5228293 5e-05 19.5228293 20 0 20"></polygon>
    </defs>
    <g id="Event-Feed" stroke="none" stroke-width="1" fill="none" fill-rule="evenodd" transform="translate(-963.000000, -570.000000)">
        <g id="Group-4" transform="translate(963.000000, 570.000000)">
            <mask id="mask-2" fill="white">
                <use xlink:href="#path-1"></use>
            </mask>
            <g id="Clip-2"></g>
            <path d="M17.1852683,14.40955 C16.4194146,15.75605 15.3691707,16.82505 14.0472195,17.61505 C12.7330732,18.40055 11.2930732,18.79655 9.7457561,18.79655 C8.58234146,18.79655 7.47209756,18.56705 6.41502439,18.09655 C5.35843902,17.62605 4.4457561,17.00755 3.68282927,16.22555 C2.91941463,15.44305 2.31160976,14.49855 1.85746341,13.41355 C1.40429268,12.33255 1.18526829,11.18155 1.18526829,9.98905 C1.18526829,8.40255 1.56526829,6.93405 2.32721951,5.59105 C3.09209756,4.24305 4.14185366,3.17305 5.45502439,2.38505 C6.76721951,1.59755 8.19795122,1.20355 9.74526829,1.20355 C11.2930732,1.20355 12.7330732,1.60005 14.0467317,2.38505 C15.3686829,3.17555 16.4164878,4.24505 17.1852683,5.59105 C17.953561,6.93655 18.3379512,8.40255 18.3379512,9.98905 C18.3379512,11.57555 17.956,13.05405 17.1852683,14.40955 M18.7433171,6.10505 C17.7145366,3.64555 15.9652683,1.85655 13.5457561,0.79855 C12.336,0.27005 11.0691707,5e-05 9.74526829,5e-05 C8.42185366,5e-05 7.16429268,0.26755 5.956,0.79855 C3.5564878,1.85355 1.79941463,3.64155 0.768682927,6.10505 C0.252097561,7.33955 -9.75609764e-05,8.63255 -9.75609764e-05,9.98905 C-9.75609764e-05,11.34605 0.252097561,12.64955 0.768682927,13.88405 C1.79941463,16.34755 3.55697561,18.14605 5.956,19.20155 C7.16478049,19.73255 8.42185366,20.00005 9.74526829,20.00005 C11.0686829,20.00005 12.336,19.73005 13.5452683,19.20155 C15.9647805,18.14355 17.7140488,16.34355 18.7433171,13.88405 C19.2618537,12.64555 19.5228293,11.34605 19.5228293,9.98905 C19.5228293,8.63255 19.2623415,7.34355 18.7433171,6.10505" id="Fill-1" fill="#EC832F" mask="url(#mask-2)"></path>
            <path d="M10.3645854,9.9015 L10.3645854,4.234 C10.3645854,3.895 10.0762927,3.6215 9.74507317,3.6215 C9.43580488,3.6215 9.1582439,3.895 9.1582439,4.234 L9.1582439,9.989 C9.1582439,10 9.17970732,10.044 9.17970732,10.0765 C9.1582439,10.2735 9.21190244,10.4375 9.33970732,10.569 L12.5314146,13.8405 C12.7450732,14.059 13.1397073,14.059 13.3533659,13.8405 C13.5987317,13.589 13.5826341,13.224 13.3533659,12.987 L10.3645854,9.9015 Z" id="Fill-4" fill="#EC832F" mask="url(#mask-2)"></path>
        </g>
    </g>
</svg>