<?xml version="1.0" encoding="utf-8"?>
<!-- Generator: Adobe Illustrator 22.0.1, SVG Export Plug-In . SVG Version: 6.00 Build 0)  -->
<svg version="1.1" id="Layer_1" xmlns="http://www.w3.org/2000/svg" xmlns:xlink="http://www.w3.org/1999/xlink" x="0px" y="0px"
	 viewBox="0 0 539.7 446" style="enable-background:new 0 0 539.7 446;" xml:space="preserve">
<style type="text/css">
	.st0{fill:#FFFFFF;}
</style>
<g>
	<g>
		<g>
			<path class="st0" d="M6.5,263.4h10.2v-66H6.5v-14.1h26.7L63,232.8l29.6-49.5h27.2v14.1h-10.2v66h10.2v13.7H81.4v-13.7h10.1v-35.5
				c0-7.3,0.9-18.3,1.3-19.9c-0.7,1.3-5.5,10.1-9.1,16.3l-19,30.9h-5.9l-18.6-30.7c-3.8-5.9-8.6-15.7-9.1-17
				c0,0.9,1.1,12.8,1.1,20.5v35.5h10.2v13.7H6.5V263.4z"/>
		</g>
		<g>
			<path class="st0" d="M138.1,248.6h11.7c2.2,11.9,11.5,15.9,21.2,15.9c10.6,0,15.9-4.9,15.9-11.7c0-6.9-4-9.9-16.5-14.8l-7.3-2.7
				c-14.1-5.5-22.5-12.4-22.5-27.4c0-15.4,12.2-26,27.1-26c10.1-0.2,15.7,3.1,19.9,7.9l1.5-6.4h10.6v25.8H188
				c-2.2-10.2-9.9-13-17.2-13c-8.6,0-13.3,4.2-13.3,10.2c0,6.2,3.7,9,14.6,13.2l6.9,2.6c19.4,7.3,25.6,15.4,25.6,28.9
				c0,16.8-12.8,27.8-31.6,27.8c-9.9,0-18.5-3.8-22.7-9.5l-1.5,7.9h-10.8V248.6z"/>
		</g>
		<g>
			<path class="st0" d="M229.5,182.6h14.1v19c7.7-11.3,18.8-21,36.2-21c22.7,0,45.2,17.9,45.2,49v0.4c0,30.9-22.3,49.2-45.2,49.2
				c-17.6,0-28.9-9.5-36.2-20.1v47.4h-14.1V182.6z M310.5,230.1v-0.4c0-22.3-15.4-36.6-33.3-36.6c-17.6,0-34.2,14.8-34.2,36.4v0.4
				c0,21.9,16.6,36.6,34.2,36.6C295.5,266.5,310.5,252.9,310.5,230.1z"/>
		</g>
		<g>
			<path class="st0" d="M350.9,143.6H365V199c6.2-10.2,16.1-18.5,32.4-18.5c22.9,0,36.2,15.4,36.2,37.8v58.7h-14.1v-55.2
				c0-17.6-9.5-28.5-26.1-28.5c-16.3,0-28.3,11.9-28.3,29.6v54.1h-14.1V143.6z"/>
		</g>
		<g>
			<path class="st0" d="M463.9,146.4H480v15.5h-16.1V146.4z M464.8,182.6h14.1v94.5h-14.1V182.6z"/>
		</g>
	</g>
	<g>
		<path class="st0" d="M270.7,311.8h3.3l10.5,15.8l10.5-15.8h3.3v28.9h-3.3v-23.4l-10.5,15.5h-0.2l-10.5-15.4v23.4h-3.2V311.8z"/>
		<path class="st0" d="M306.1,311.2h3.6v3.5h-3.6V311.2z M306.3,319.4h3.2v21.3h-3.2V319.4z"/>
		<path class="st0" d="M315.1,338l1.6-2.3c2.3,1.7,4.9,2.7,7.4,2.7c2.6,0,4.4-1.3,4.4-3.4V335c0-2.1-2.5-3-5.3-3.8
			c-3.3-0.9-7.1-2.1-7.1-6v-0.1c0-3.7,3.1-6.1,7.3-6.1c2.6,0,5.5,0.9,7.7,2.4l-1.4,2.4c-2-1.3-4.3-2.1-6.3-2.1
			c-2.5,0-4.1,1.3-4.1,3.1v0.1c0,2,2.6,2.8,5.5,3.7c3.3,1,6.9,2.3,6.9,6.1v0.1c0,4-3.3,6.4-7.6,6.4
			C320.9,341.1,317.5,339.9,315.1,338z"/>
		<path class="st0" d="M335.2,338l1.6-2.3c2.3,1.7,4.9,2.7,7.4,2.7c2.6,0,4.4-1.3,4.4-3.4V335c0-2.1-2.5-3-5.3-3.8
			c-3.3-0.9-7.1-2.1-7.1-6v-0.1c0-3.7,3.1-6.1,7.3-6.1c2.6,0,5.5,0.9,7.7,2.4l-1.4,2.4c-2-1.3-4.3-2.1-6.3-2.1
			c-2.5,0-4.1,1.3-4.1,3.1v0.1c0,2,2.6,2.8,5.5,3.7c3.3,1,6.9,2.3,6.9,6.1v0.1c0,4-3.3,6.4-7.6,6.4C341,341.1,337.6,339.9,335.2,338
			z"/>
		<path class="st0" d="M357.7,311.2h3.6v3.5h-3.6V311.2z M357.9,319.4h3.2v21.3h-3.2V319.4z"/>
		<path class="st0" d="M366.7,338l1.6-2.3c2.3,1.7,4.9,2.7,7.4,2.7c2.6,0,4.4-1.3,4.4-3.4V335c0-2.1-2.5-3-5.3-3.8
			c-3.3-0.9-7.1-2.1-7.1-6v-0.1c0-3.7,3.1-6.1,7.3-6.1c2.6,0,5.5,0.9,7.7,2.4l-1.4,2.4c-2-1.3-4.3-2.1-6.3-2.1
			c-2.5,0-4.1,1.3-4.1,3.1v0.1c0,2,2.6,2.8,5.5,3.7c3.3,1,6.9,2.3,6.9,6.1v0.1c0,4-3.3,6.4-7.6,6.4
			C372.4,341.1,369.1,339.9,366.7,338z"/>
		<path class="st0" d="M386.8,338l1.6-2.3c2.3,1.7,4.9,2.7,7.4,2.7c2.6,0,4.4-1.3,4.4-3.4V335c0-2.1-2.5-3-5.3-3.8
			c-3.3-0.9-7.1-2.1-7.1-6v-0.1c0-3.7,3.1-6.1,7.3-6.1c2.6,0,5.5,0.9,7.7,2.4l-1.4,2.4c-2-1.3-4.3-2.1-6.3-2.1
			c-2.5,0-4.1,1.3-4.1,3.1v0.1c0,2,2.6,2.8,5.5,3.7c3.3,1,6.9,2.3,6.9,6.1v0.1c0,4-3.3,6.4-7.6,6.4
			C392.6,341.1,389.2,339.9,386.8,338z"/>
		<path class="st0" d="M409.2,311.2h3.6v3.5h-3.6V311.2z M409.4,319.4h3.2v21.3h-3.2V319.4z"/>
		<path class="st0" d="M420,319.4h3.2v4.3c1.7-2.6,4.3-4.7,8.2-4.7c5.1,0,10.2,4,10.2,11.1v0.1c0,7-5,11.1-10.2,11.1
			c-4,0-6.5-2.1-8.2-4.5v10.7H420V319.4z M438.3,330.1L438.3,330.1c0-5.1-3.5-8.3-7.5-8.3c-4,0-7.7,3.3-7.7,8.2v0.1
			c0,5,3.8,8.3,7.7,8.3C434.9,338.3,438.3,335.3,438.3,330.1z"/>
		<path class="st0" d="M447.4,319.4h3.2v4.3c1.7-2.6,4.3-4.7,8.2-4.7c5.1,0,10.2,4,10.2,11.1v0.1c0,7-5,11.1-10.2,11.1
			c-4,0-6.5-2.1-8.2-4.5v10.7h-3.2V319.4z M465.7,330.1L465.7,330.1c0-5.1-3.5-8.3-7.5-8.3c-4,0-7.7,3.3-7.7,8.2v0.1
			c0,5,3.8,8.3,7.7,8.3C462.3,338.3,465.7,335.3,465.7,330.1z"/>
		<path class="st0" d="M474.9,311.2h3.6v3.5h-3.6V311.2z M475.1,319.4h3.2v21.3h-3.2V319.4z"/>
		<path class="st0" d="M270.7,361.3h10.8c6.5,0,10.8,3.5,10.8,9.2v0.1c0,6.2-5.2,9.5-11.4,9.5h-7v10.2h-3.3V361.3z M281.1,377.1
			c4.8,0,7.9-2.6,7.9-6.4v-0.1c0-4.1-3.1-6.3-7.8-6.3H274v12.7H281.1z"/>
		<path class="st0" d="M297.4,382.2v-13.3h3.2v12.5c0,4,2.1,6.4,5.9,6.4c3.6,0,6.4-2.7,6.4-6.7v-12.2h3.1v21.3h-3.1v-3.7
			c-1.4,2.3-3.6,4.2-7.3,4.2C300.4,390.7,297.4,387.2,297.4,382.2z"/>
		<path class="st0" d="M326.4,386.2v4.1h-3.2v-30.1h3.2v13.1c1.7-2.6,4.3-4.7,8.2-4.7c5.1,0,10.2,4,10.2,11.1v0.1
			c0,7-5,11.1-10.2,11.1C330.6,390.7,328,388.6,326.4,386.2z M341.5,379.6L341.5,379.6c0-5.1-3.5-8.3-7.5-8.3c-4,0-7.7,3.3-7.7,8.2
			v0.1c0,5,3.8,8.3,7.7,8.3C338.1,387.9,341.5,384.8,341.5,379.6z"/>
		<path class="st0" d="M350.9,360.1h3.2v30.1h-3.2V360.1z"/>
		<path class="st0" d="M361.5,360.7h3.6v3.5h-3.6V360.7z M361.7,368.9h3.2v21.3h-3.2V368.9z"/>
		<path class="st0" d="M371,379.7L371,379.7c0-6.1,4.7-11.2,10.9-11.2c4,0,6.6,1.7,8.5,3.8l-2.1,2.2c-1.7-1.8-3.6-3.2-6.5-3.2
			c-4.3,0-7.6,3.7-7.6,8.3v0.1c0,4.6,3.4,8.3,7.8,8.3c2.7,0,4.8-1.4,6.5-3.2l2,1.9c-2.1,2.4-4.7,4.1-8.7,4.1
			C375.7,390.7,371,385.7,371,379.7z"/>
		<path class="st0" d="M408.8,361.3h3.3v12.8h16.7v-12.8h3.3v28.9h-3.3v-13h-16.7v13h-3.3V361.3z"/>
		<path class="st0" d="M438.3,379.6L438.3,379.6c0-6.2,4.3-11.2,10.2-11.2c6.3,0,9.9,5,9.9,11.3c0,0.4,0,0.7,0,1h-16.9
			c0.5,4.6,3.7,7.2,7.5,7.2c2.9,0,5-1.2,6.7-3l2,1.8c-2.1,2.4-4.7,4-8.8,4C443.1,390.7,438.3,386.2,438.3,379.6z M455.3,378.4
			c-0.3-3.9-2.6-7.3-6.8-7.3c-3.7,0-6.5,3.1-6.9,7.3H455.3z"/>
		<path class="st0" d="M462.5,384.1L462.5,384.1c0-4.6,3.7-7,9.1-7c2.7,0,4.7,0.4,6.6,0.9v-0.7c0-3.8-2.4-5.8-6.4-5.8
			c-2.5,0-4.5,0.7-6.5,1.6l-0.9-2.6c2.4-1.1,4.7-1.8,7.8-1.8c3,0,5.3,0.8,6.9,2.4c1.4,1.4,2.2,3.5,2.2,6.2v13h-3.1V387
			c-1.5,1.9-4,3.7-7.7,3.7C466.5,390.7,462.5,388.4,462.5,384.1z M478.2,382.4v-2.1c-1.6-0.5-3.7-0.9-6.3-0.9c-4,0-6.2,1.7-6.2,4.4
			v0.1c0,2.7,2.5,4.3,5.4,4.3C475,388.2,478.2,385.8,478.2,382.4z"/>
		<path class="st0" d="M488.3,360.1h3.2v30.1h-3.2V360.1z"/>
		<path class="st0" d="M500,384.6v-12.9h-3v-2.8h3v-6.4h3.2v6.4h6.8v2.8h-6.8v12.5c0,2.6,1.4,3.6,3.6,3.6c1.1,0,2-0.2,3.1-0.7v2.7
			c-1.1,0.6-2.3,0.9-3.8,0.9C502.6,390.6,500,388.9,500,384.6z"/>
		<path class="st0" d="M515.6,360.1h3.2v12.5c1.4-2.3,3.6-4.2,7.3-4.2c5.2,0,8.2,3.5,8.2,8.5v13.3H531v-12.5c0-4-2.1-6.4-5.9-6.4
			c-3.7,0-6.4,2.7-6.4,6.7v12.2h-3.2V360.1z"/>
		<path class="st0" d="M271,410.9h3.3v28.9H271V410.9z"/>
		<path class="st0" d="M282.2,418.5h3.2v3.7c1.4-2.3,3.6-4.2,7.3-4.2c5.2,0,8.2,3.5,8.2,8.5v13.3h-3.2v-12.5c0-4-2.1-6.4-5.9-6.4
			c-3.7,0-6.4,2.7-6.4,6.7v12.2h-3.2V418.5z"/>
		<path class="st0" d="M305.8,437.1l1.6-2.3c2.3,1.7,4.9,2.7,7.4,2.7c2.6,0,4.4-1.3,4.4-3.4v-0.1c0-2.1-2.5-3-5.3-3.8
			c-3.3-0.9-7.1-2.1-7.1-6v-0.1c0-3.7,3.1-6.1,7.3-6.1c2.6,0,5.5,0.9,7.7,2.4l-1.4,2.4c-2-1.3-4.3-2.1-6.3-2.1
			c-2.5,0-4.1,1.3-4.1,3.1v0.1c0,2,2.6,2.8,5.5,3.7c3.3,1,6.9,2.3,6.9,6.1v0.1c0,4-3.3,6.4-7.6,6.4
			C311.6,440.2,308.2,439,305.8,437.1z"/>
		<path class="st0" d="M328.9,434.1v-12.9h-3v-2.8h3V412h3.2v6.4h6.8v2.8h-6.8v12.5c0,2.6,1.4,3.6,3.6,3.6c1.1,0,2-0.2,3.1-0.7v2.7
			c-1.1,0.6-2.3,0.9-3.8,0.9C331.5,440.2,328.9,438.5,328.9,434.1z"/>
		<path class="st0" d="M344.5,410.3h3.6v3.5h-3.6V410.3z M344.7,418.5h3.2v21.3h-3.2V418.5z"/>
		<path class="st0" d="M356.4,434.1v-12.9h-3v-2.8h3V412h3.2v6.4h6.8v2.8h-6.8v12.5c0,2.6,1.4,3.6,3.6,3.6c1.1,0,2-0.2,3.1-0.7v2.7
			c-1.1,0.6-2.3,0.9-3.8,0.9C359,440.2,356.4,438.5,356.4,434.1z"/>
		<path class="st0" d="M371.7,431.7v-13.3h3.2v12.5c0,4,2.1,6.4,5.9,6.4c3.6,0,6.4-2.7,6.4-6.7v-12.2h3.1v21.3h-3.1v-3.7
			c-1.4,2.3-3.6,4.2-7.3,4.2C374.7,440.3,371.7,436.8,371.7,431.7z"/>
		<path class="st0" d="M398.5,434.1v-12.9h-3v-2.8h3V412h3.2v6.4h6.8v2.8h-6.8v12.5c0,2.6,1.4,3.6,3.6,3.6c1.1,0,2-0.2,3.1-0.7v2.7
			c-1.1,0.6-2.3,0.9-3.8,0.9C401.1,440.2,398.5,438.5,398.5,434.1z"/>
		<path class="st0" d="M412.2,429.2L412.2,429.2c0-6.2,4.3-11.2,10.2-11.2c6.3,0,9.9,5,9.9,11.3c0,0.4,0,0.7,0,1h-16.9
			c0.5,4.6,3.7,7.2,7.5,7.2c2.9,0,5-1.2,6.7-3l2,1.8c-2.1,2.4-4.7,4-8.8,4C416.9,440.3,412.2,435.8,412.2,429.2z M429.1,427.9
			c-0.3-3.9-2.6-7.3-6.8-7.3c-3.7,0-6.5,3.1-6.9,7.3H429.1z"/>
	</g>
	<g>
		<g>
			<path class="st0" d="M343.8,59.5C343.8,59.5,343.8,59.5,343.8,59.5c-3.3-2.8-24.3-19.6-43.9-15.4c0,0,17.3-7.8,44.8,10.4
				c2.7-16.8,1.8-33.1-3.2-37c-5.4-4.2-23.1-0.3-39.7,7.3c0,0-26.9,10.7-33.9,29.3c0,0,3-19.4,30.6-32.2
				c-10.7-9.2-21.5-15.3-26.7-13.7c-5.3,1.6-11.1,13.2-14.8,27.1c-10.2,37.9,2.7,54.7,2.7,54.7s-17-13-11.3-49.3
				c-15.3,3.6-28.5,9.8-30.2,15.5C216,63,227,79.3,240.8,92.4c0,0,0,0,0,0c4.8,4.6,15.7,14.1,26.4,17.4c0,0-8.2,0.7-27.8-12.1
				c-4.1,16.1-4.8,31.9-0.3,36.2c5.3,5.1,26,2.3,44.5-4.7c0,0,35.4-10.2,36.6-38.8c0,0,3.1,27.3-32.1,42.9
				c10.8,9.4,21.8,15.6,27.1,14c5.5-1.7,11.3-13.8,15-28.3c1.2-4.8,8.9-38.5-3.1-53.5c0,0,12.9,5.1,8.9,48
				c17.1-4.8,32.4-12.9,33.8-19.4C371.3,87.1,358.9,71.5,343.8,59.5z M298.2,102.9c-17.6-4.7-28.4-18.2-28.4-18.2l-0.2-0.5
				c0,0,0.9-17.3,12.3-31.4c17.6,4.7,28.4,18.2,28.4,18.2l0.2,0.5C310.6,71.4,309.7,88.8,298.2,102.9z"/>
		</g>
	</g>
</g>
</svg>
