<?xml version="1.0" encoding="utf-8"?>
<!-- Generator: Adobe Illustrator 22.0.1, SVG Export Plug-In . SVG Version: 6.00 Build 0)  -->
<svg version="1.1" id="Layer_1" xmlns="http://www.w3.org/2000/svg" xmlns:xlink="http://www.w3.org/1999/xlink" x="0px" y="0px"
	 viewBox="0 0 523 446" style="enable-background:new 0 0 523 446;" xml:space="preserve">
<style type="text/css">
	.st0{fill:#41515A;}
	.st1{fill:#556973;}
	.st2{fill:#0098B5;}
	.st3{fill:url(#SVGID_1_);}
	.st4{fill:url(#SVGID_2_);}
	.st5{fill:url(#SVGID_3_);}
	.st6{fill:url(#SVGID_4_);}
	.st7{fill:url(#SVGID_5_);}
	.st8{fill:url(#SVGID_6_);}
	.st9{fill:url(#SVGID_7_);}
	.st10{fill:url(#SVGID_8_);}
	.st11{fill:url(#SVGID_9_);}
	.st12{fill:url(#SVGID_10_);}
	.st13{fill:url(#SVGID_11_);}
	.st14{fill:url(#SVGID_12_);}
	.st15{fill:url(#SVGID_13_);}
	.st16{fill:url(#SVGID_14_);}
	.st17{fill:url(#SVGID_15_);}
	.st18{fill:url(#SVGID_16_);}
	.st19{fill:url(#SVGID_17_);}
	.st20{fill:url(#SVGID_18_);}
	.st21{fill:url(#SVGID_19_);}
	.st22{fill:url(#SVGID_20_);}
	.st23{fill:url(#SVGID_21_);}
	.st24{fill:url(#SVGID_22_);}
	.st25{fill:url(#SVGID_23_);}
	.st26{fill:url(#SVGID_24_);}
	.st27{fill:url(#SVGID_25_);}
	.st28{fill:url(#SVGID_26_);}
	.st29{fill:#FFFFFF;}
	.st30{fill:url(#SVGID_27_);}
	.st31{fill:url(#SVGID_28_);}
	.st32{fill:url(#SVGID_29_);}
</style>
<g>
	<g>
		<path class="st0" d="M6.4,269.4h9.9v-64H6.4v-13.7h25.9l28.9,48l28.7-48h26.4v13.7h-9.9v64h9.9v13.3H79.1v-13.3h9.8V235
			c0-7.1,0.9-17.7,1.2-19.3c-0.7,1.2-5.3,9.8-8.9,15.8l-18.4,30h-5.7L39,231.6c-3.7-5.7-8.3-15.2-8.9-16.5c0,0.9,1.1,12.4,1.1,19.9
			v34.4h9.9v13.3H6.4V269.4z"/>
		<path class="st0" d="M134.1,255h11.3c2.1,11.5,11.2,15.4,20.6,15.4c10.3,0,15.4-4.8,15.4-11.3c0-6.7-3.9-9.6-16-14.4l-7.1-2.7
			c-13.7-5.3-21.8-12.1-21.8-26.6c0-14.9,11.9-25.2,26.2-25.2c9.8-0.2,15.2,3,19.3,7.6l1.4-6.2h10.3v25h-11.3
			c-2.1-9.9-9.6-12.6-16.7-12.6c-8.3,0-12.9,4.1-12.9,9.9c0,6,3.5,8.7,14.2,12.8l6.7,2.5c18.8,7.1,24.8,14.9,24.8,28
			c0,16.3-12.4,26.9-30.7,26.9c-9.6,0-17.9-3.7-22-9.2l-1.4,7.6h-10.5V255z"/>
		<path class="st1" d="M222.7,191h13.7v18.4c7.4-11,18.3-20.4,35.1-20.4c22,0,43.8,17.4,43.8,47.5v0.4c0,30-21.6,47.7-43.8,47.7
			c-17,0-28-9.2-35.1-19.5V311h-13.7V191z M301.2,237.1v-0.4c0-21.6-14.9-35.5-32.3-35.5c-17,0-33.2,14.4-33.2,35.3v0.4
			c0,21.3,16.1,35.5,33.2,35.5C286.7,272.4,301.2,259.3,301.2,237.1z"/>
		<path class="st1" d="M340.4,153.3h13.7V207c6-9.9,15.6-17.9,31.4-17.9c22.2,0,35.1,14.9,35.1,36.7v56.9h-13.7v-53.5
			c0-17-9.2-27.7-25.4-27.7c-15.8,0-27.5,11.5-27.5,28.7v52.5h-13.7V153.3z"/>
		<path class="st1" d="M450,155.9h15.6V171H450V155.9z M450.9,191h13.7v91.7h-13.7V191z"/>
	</g>
	<g>
		<path class="st2" d="M262.6,316.4h3.2l10.2,15.3l10.2-15.3h3.2v28h-3.2v-22.7l-10.2,15h-0.2l-10.2-15v22.7h-3.1V316.4z"/>
		<path class="st2" d="M296.9,315.8h3.5v3.4h-3.5V315.8z M297.1,323.7h3.1v20.7h-3.1V323.7z"/>
		<path class="st2" d="M305.7,341.7l1.6-2.2c2.2,1.7,4.7,2.6,7.2,2.6c2.5,0,4.3-1.3,4.3-3.3v-0.1c0-2.1-2.4-2.9-5.2-3.6
			c-3.2-0.9-6.8-2-6.8-5.8v-0.1c0-3.6,3-5.9,7-5.9c2.5,0,5.3,0.9,7.4,2.3l-1.4,2.3c-1.9-1.2-4.1-2-6.1-2c-2.4,0-4,1.3-4,3v0.1
			c0,2,2.6,2.7,5.3,3.6c3.2,1,6.6,2.2,6.6,5.9v0.1c0,3.9-3.2,6.2-7.4,6.2C311.3,344.8,308,343.6,305.7,341.7z"/>
		<path class="st2" d="M325.2,341.7l1.6-2.2c2.2,1.7,4.7,2.6,7.2,2.6c2.5,0,4.3-1.3,4.3-3.3v-0.1c0-2.1-2.4-2.9-5.2-3.6
			c-3.2-0.9-6.8-2-6.8-5.8v-0.1c0-3.6,3-5.9,7-5.9c2.5,0,5.3,0.9,7.4,2.3l-1.4,2.3c-1.9-1.2-4.1-2-6.1-2c-2.4,0-4,1.3-4,3v0.1
			c0,2,2.6,2.7,5.3,3.6c3.2,1,6.6,2.2,6.6,5.9v0.1c0,3.9-3.2,6.2-7.4,6.2C330.8,344.8,327.5,343.6,325.2,341.7z"/>
		<path class="st2" d="M347,315.8h3.5v3.4H347V315.8z M347.2,323.7h3.1v20.7h-3.1V323.7z"/>
		<path class="st2" d="M355.7,341.7l1.6-2.2c2.2,1.7,4.7,2.6,7.2,2.6c2.5,0,4.3-1.3,4.3-3.3v-0.1c0-2.1-2.4-2.9-5.2-3.6
			c-3.2-0.9-6.8-2-6.8-5.8v-0.1c0-3.6,3-5.9,7-5.9c2.5,0,5.3,0.9,7.4,2.3l-1.4,2.3c-1.9-1.2-4.1-2-6.1-2c-2.4,0-4,1.3-4,3v0.1
			c0,2,2.6,2.7,5.3,3.6c3.2,1,6.6,2.2,6.6,5.9v0.1c0,3.9-3.2,6.2-7.4,6.2C361.3,344.8,358,343.6,355.7,341.7z"/>
		<path class="st2" d="M375.2,341.7l1.6-2.2c2.2,1.7,4.7,2.6,7.2,2.6c2.5,0,4.3-1.3,4.3-3.3v-0.1c0-2.1-2.4-2.9-5.2-3.6
			c-3.2-0.9-6.8-2-6.8-5.8v-0.1c0-3.6,3-5.9,7-5.9c2.5,0,5.3,0.9,7.4,2.3l-1.4,2.3c-1.9-1.2-4.1-2-6.1-2c-2.4,0-4,1.3-4,3v0.1
			c0,2,2.6,2.7,5.3,3.6c3.2,1,6.6,2.2,6.6,5.9v0.1c0,3.9-3.2,6.2-7.4,6.2C380.8,344.8,377.5,343.6,375.2,341.7z"/>
		<path class="st2" d="M397,315.8h3.5v3.4H397V315.8z M397.2,323.7h3.1v20.7h-3.1V323.7z"/>
		<path class="st2" d="M407.4,323.7h3.1v4.2c1.7-2.5,4.1-4.6,7.9-4.6c5,0,9.9,3.9,9.9,10.7v0.1c0,6.8-4.9,10.8-9.9,10.8
			c-3.8,0-6.3-2.1-7.9-4.4v10.4h-3.1V323.7z M425.2,334.1L425.2,334.1c0-5-3.4-8.1-7.3-8.1c-3.8,0-7.5,3.2-7.5,8v0.1
			c0,4.8,3.6,8,7.5,8C421.9,342.1,425.2,339.1,425.2,334.1z"/>
		<path class="st2" d="M434,323.7h3.1v4.2c1.7-2.5,4.1-4.6,7.9-4.6c5,0,9.9,3.9,9.9,10.7v0.1c0,6.8-4.9,10.8-9.9,10.8
			c-3.8,0-6.3-2.1-7.9-4.4v10.4H434V323.7z M451.7,334.1L451.7,334.1c0-5-3.4-8.1-7.3-8.1c-3.8,0-7.5,3.2-7.5,8v0.1
			c0,4.8,3.6,8,7.5,8C448.5,342.1,451.7,339.1,451.7,334.1z"/>
		<path class="st2" d="M460.7,315.8h3.5v3.4h-3.5V315.8z M460.9,323.7h3.1v20.7h-3.1V323.7z"/>
		<path class="st2" d="M262.6,364.4h10.5c6.3,0,10.5,3.4,10.5,8.9v0.1c0,6-5,9.2-11,9.2h-6.8v9.9h-3.2V364.4z M272.7,379.7
			c4.6,0,7.7-2.5,7.7-6.2v-0.1c0-4-3-6.1-7.5-6.1h-7.1v12.3H272.7z"/>
		<path class="st2" d="M288.5,384.6v-12.8h3.1v12.1c0,3.8,2.1,6.2,5.7,6.2c3.5,0,6.2-2.6,6.2-6.5v-11.8h3v20.7h-3v-3.6
			c-1.4,2.2-3.5,4-7.1,4C291.5,392.9,288.5,389.5,288.5,384.6z"/>
		<path class="st2" d="M316.6,388.5v4h-3.1v-29.2h3.1v12.7c1.7-2.5,4.1-4.6,7.9-4.6c5,0,9.9,3.9,9.9,10.7v0.1
			c0,6.8-4.9,10.8-9.9,10.8C320.7,392.9,318.2,390.8,316.6,388.5z M331.3,382.1L331.3,382.1c0-5-3.4-8.1-7.3-8.1
			c-3.8,0-7.5,3.2-7.5,8v0.1c0,4.8,3.6,8,7.5,8C328,390.1,331.3,387.1,331.3,382.1z"/>
		<path class="st2" d="M340.4,363.2h3.1v29.2h-3.1V363.2z"/>
		<path class="st2" d="M350.7,363.8h3.5v3.4h-3.5V363.8z M350.9,371.7h3.1v20.7h-3.1V371.7z"/>
		<path class="st2" d="M359.9,382.2L359.9,382.2c0-5.9,4.6-10.9,10.6-10.9c3.9,0,6.4,1.6,8.3,3.7l-2,2.2c-1.6-1.7-3.5-3.1-6.3-3.1
			c-4.2,0-7.4,3.6-7.4,8v0.1c0,4.5,3.3,8,7.6,8c2.6,0,4.7-1.3,6.3-3.1l2,1.8c-2.1,2.3-4.6,4-8.4,4
			C364.5,392.9,359.9,388,359.9,382.2z"/>
		<path class="st2" d="M396.6,364.4h3.2v12.4h16.2v-12.4h3.2v28h-3.2v-12.6h-16.2v12.6h-3.2V364.4z"/>
		<path class="st2" d="M425.2,382.1L425.2,382.1c0-6,4.2-10.8,9.9-10.8c6.1,0,9.6,4.9,9.6,10.9c0,0.4,0,0.6,0,1h-16.4
			c0.4,4.5,3.6,7,7.3,7c2.8,0,4.8-1.2,6.5-2.9l1.9,1.7c-2.1,2.3-4.6,3.9-8.5,3.9C429.8,392.9,425.2,388.5,425.2,382.1z M441.7,380.9
			c-0.3-3.8-2.5-7-6.6-7c-3.6,0-6.3,3-6.7,7H441.7z"/>
		<path class="st2" d="M448.6,386.4L448.6,386.4c0-4.4,3.6-6.8,8.8-6.8c2.6,0,4.5,0.4,6.4,0.9v-0.7c0-3.7-2.3-5.6-6.2-5.6
			c-2.4,0-4.4,0.6-6.3,1.5l-0.9-2.5c2.3-1,4.5-1.7,7.5-1.7c2.9,0,5.2,0.8,6.7,2.3c1.4,1.4,2.1,3.4,2.1,6v12.6h-3v-3.1
			c-1.4,1.9-3.8,3.6-7.5,3.6C452.5,392.9,448.6,390.7,448.6,386.4z M463.9,384.8v-2c-1.5-0.4-3.6-0.9-6.1-0.9c-3.9,0-6,1.7-6,4.3
			v0.1c0,2.6,2.4,4.1,5.2,4.1C460.8,390.4,463.9,388.1,463.9,384.8z"/>
		<path class="st2" d="M473.7,363.2h3.1v29.2h-3.1V363.2z"/>
		<path class="st2" d="M485,386.9v-12.5h-2.9v-2.7h2.9v-6.2h3.1v6.2h6.6v2.7h-6.6v12.1c0,2.5,1.4,3.4,3.5,3.4c1,0,1.9-0.2,3-0.7v2.6
			c-1.1,0.6-2.2,0.9-3.7,0.9C487.5,392.8,485,391.1,485,386.9z"/>
		<path class="st2" d="M500.1,363.2h3.1v12.1c1.4-2.2,3.5-4,7.1-4c5,0,7.9,3.4,7.9,8.3v12.8h-3.1v-12.1c0-3.8-2.1-6.2-5.7-6.2
			c-3.6,0-6.2,2.6-6.2,6.5v11.8h-3.1V363.2z"/>
		<path class="st2" d="M262.9,412.5h3.2v28h-3.2V412.5z"/>
		<path class="st2" d="M273.8,419.8h3.1v3.6c1.4-2.2,3.5-4,7.1-4c5,0,7.9,3.4,7.9,8.3v12.8h-3.1v-12.1c0-3.8-2.1-6.2-5.7-6.2
			c-3.6,0-6.2,2.6-6.2,6.5v11.8h-3.1V419.8z"/>
		<path class="st2" d="M296.7,437.8l1.6-2.2c2.2,1.7,4.7,2.6,7.2,2.6c2.5,0,4.3-1.3,4.3-3.3v-0.1c0-2.1-2.4-2.9-5.2-3.6
			c-3.2-0.9-6.8-2-6.8-5.8v-0.1c0-3.6,3-5.9,7-5.9c2.5,0,5.3,0.9,7.4,2.3l-1.4,2.3c-1.9-1.2-4.1-2-6.1-2c-2.4,0-4,1.3-4,3v0.1
			c0,2,2.6,2.7,5.3,3.6c3.2,1,6.6,2.2,6.6,5.9v0.1c0,3.9-3.2,6.2-7.4,6.2C302.3,440.9,299,439.7,296.7,437.8z"/>
		<path class="st2" d="M319,435v-12.5h-2.9v-2.7h2.9v-6.2h3.1v6.2h6.6v2.7h-6.6v12.1c0,2.5,1.4,3.4,3.5,3.4c1,0,1.9-0.2,3-0.7v2.6
			c-1.1,0.6-2.2,0.9-3.7,0.9C321.6,440.8,319,439.2,319,435z"/>
		<path class="st2" d="M334.2,411.9h3.5v3.4h-3.5V411.9z M334.4,419.8h3.1v20.7h-3.1V419.8z"/>
		<path class="st2" d="M345.8,435v-12.5h-2.9v-2.7h2.9v-6.2h3.1v6.2h6.6v2.7h-6.6v12.1c0,2.5,1.4,3.4,3.5,3.4c1,0,1.9-0.2,3-0.7v2.6
			c-1.1,0.6-2.2,0.9-3.7,0.9C348.3,440.8,345.8,439.2,345.8,435z"/>
		<path class="st2" d="M360.5,432.6v-12.8h3.1v12.1c0,3.8,2.1,6.2,5.7,6.2c3.5,0,6.2-2.6,6.2-6.5v-11.8h3v20.7h-3v-3.6
			c-1.4,2.2-3.5,4-7.1,4C363.5,440.9,360.5,437.6,360.5,432.6z"/>
		<path class="st2" d="M386.6,435v-12.5h-2.9v-2.7h2.9v-6.2h3.1v6.2h6.6v2.7h-6.6v12.1c0,2.5,1.4,3.4,3.5,3.4c1,0,1.9-0.2,3-0.7v2.6
			c-1.1,0.6-2.2,0.9-3.7,0.9C389.1,440.8,386.6,439.2,386.6,435z"/>
		<path class="st2" d="M399.8,430.2L399.8,430.2c0-6,4.2-10.8,9.9-10.8c6.1,0,9.6,4.9,9.6,10.9c0,0.4,0,0.6,0,1h-16.4
			c0.4,4.5,3.6,7,7.3,7c2.8,0,4.8-1.2,6.5-2.9l1.9,1.7c-2.1,2.3-4.6,3.9-8.5,3.9C404.5,441,399.8,436.6,399.8,430.2z M416.3,429
			c-0.3-3.8-2.5-7-6.6-7c-3.6,0-6.3,3-6.7,7H416.3z"/>
	</g>
	
		<radialGradient id="SVGID_1_" cx="359.9183" cy="201.0777" r="45.6886" fx="354.0019" fy="246.3816" gradientTransform="matrix(0.9568 0.2908 -9.347054e-02 0.3075 -79.7273 -92.9274)" gradientUnits="userSpaceOnUse">
		<stop  offset="0" style="stop-color:#14545C"/>
		<stop  offset="1" style="stop-color:#00B27C"/>
	</radialGradient>
	<path class="st3" d="M232.7,69.2c-0.3-9,1-19.2,3.2-28.7c-19.2,3.3-37.4,10.9-39.6,17.8c-2.2,7.1,9.2,24.2,23.8,37.9
		C223.2,86.1,227.5,76.3,232.7,69.2z"/>
	
		<radialGradient id="SVGID_2_" cx="279.929" cy="215.8464" r="45.6344" fx="274.0196" fy="261.0966" gradientTransform="matrix(-0.2957 -0.9553 0.3071 -9.503779e-02 298.9957 392.0709)" gradientUnits="userSpaceOnUse">
		<stop  offset="0" style="stop-color:#14545C"/>
		<stop  offset="1" style="stop-color:#00B27C"/>
	</radialGradient>
	<path class="st4" d="M264.7,134.8c12.7,12.1,26.7,20.8,33,18.9c6.3-1.9,13-16.9,16.7-34c-9.4,2.2-18.9,3.4-26.8,2.8
		C281.6,127.2,273.4,131.5,264.7,134.8z"/>
	
		<radialGradient id="SVGID_3_" cx="458.9898" cy="-97.3747" r="45.6886" fx="453.0734" fy="-52.0708" gradientTransform="matrix(-0.6161 0.7876 0.2532 0.198 600.7928 -283.3701)" gradientUnits="userSpaceOnUse">
		<stop  offset="0" style="stop-color:#14545C"/>
		<stop  offset="1" style="stop-color:#00B27C"/>
	</radialGradient>
	<path class="st5" d="M327.6,61.9c3.8-19.3,3.3-39.4-2.5-43.9c-5.6-4.4-24.2-0.4-41.5,7.6c7,6.5,13.7,14.1,18.5,21.6
		C310.3,49.8,319.3,55.3,327.6,61.9z"/>
	
		<radialGradient id="SVGID_4_" cx="324.9338" cy="90.8027" r="45.6886" fx="319.0174" fy="136.1066" gradientTransform="matrix(0.2938 0.9559 -0.3072 9.441960e-02 199.8792 -261.3914)" gradientUnits="userSpaceOnUse">
		<stop  offset="0" style="stop-color:#AFBCAE"/>
		<stop  offset="1" style="stop-color:#F4EA04"/>
	</radialGradient>
	<path class="st6" d="M283.7,25.6c-12.2-11.3-25.3-19.2-31.3-17.4c-6.1,1.9-12.6,16-16.4,32.3c8.8-1.5,17.7-2.2,25.5-1.5
		C267.5,34,275.5,29.4,283.7,25.6z"/>
	
		<radialGradient id="SVGID_5_" cx="324.9338" cy="90.8027" r="45.6886" fx="319.0174" fy="136.1066" gradientTransform="matrix(0.2938 0.9559 -0.3072 9.441960e-02 199.8792 -261.3914)" gradientUnits="userSpaceOnUse">
		<stop  offset="0" style="stop-color:#AFBCAE"/>
		<stop  offset="1" style="stop-color:#F4EA04"/>
	</radialGradient>
	<path class="st7" d="M236,65.3c3.9-4,8-7,12.3-9c1.4-3.3,3.3-6.6,5.9-9.9c1.9-2.5,4.4-4.9,7.3-7.3c-7.7-0.7-16.7,0-25.5,1.5
		c-2.2,9.5-3.5,19.7-3.2,28.7C233.7,67.8,234.8,66.5,236,65.3z"/>
	
		<radialGradient id="SVGID_6_" cx="324.9338" cy="90.8027" r="45.6886" fx="319.0174" fy="136.1066" gradientTransform="matrix(0.2938 0.9559 -0.3072 9.441960e-02 199.8792 -261.3914)" gradientUnits="userSpaceOnUse">
		<stop  offset="0" style="stop-color:#14545C"/>
		<stop  offset="1" style="stop-color:#00B27C"/>
	</radialGradient>
	<path class="st8" d="M270.8,40.8c4.1,1.3,7.8,3,10.9,5c5.1-1,10.8-1,16.9,0.4c1.2,0.3,2.4,0.6,3.6,1c-4.8-7.5-11.5-15.1-18.5-21.6
		c-8.2,3.8-16.1,8.4-22.3,13.5C264.8,39.4,268,39.9,270.8,40.8z"/>
	
		<radialGradient id="SVGID_7_" cx="324.9338" cy="90.8027" r="45.6886" fx="319.0174" fy="136.1066" gradientTransform="matrix(0.2938 0.9559 -0.3072 9.441960e-02 199.8792 -261.3914)" gradientUnits="userSpaceOnUse">
		<stop  offset="0" style="stop-color:#2B886B"/>
		<stop  offset="1" style="stop-color:#00B27C"/>
	</radialGradient>
	<path class="st9" d="M266.5,53.2c4.2-3.6,9.4-6.2,15.2-7.4c-3.2-2-6.8-3.7-10.9-5c-2.8-0.9-6-1.4-9.4-1.7c-2.9,2.4-5.3,4.8-7.3,7.3
		c-2.5,3.2-4.5,6.5-5.9,9.9C254.2,53.4,260.4,52.5,266.5,53.2z"/>
	
		<radialGradient id="SVGID_8_" cx="397.9801" cy="194.9614" r="45.6886" fx="392.0637" fy="240.2653" gradientTransform="matrix(0.6897 -0.7241 0.2327 0.2217 -65.834 347.221)" gradientUnits="userSpaceOnUse">
		<stop  offset="0" style="stop-color:#6F816E"/>
		<stop  offset="1" style="stop-color:#638AC5"/>
	</radialGradient>
	<path class="st10" d="M220.1,96.3c-5.7,18.7-7.1,38.4-1.9,43.4c5.6,5.3,27.2,2.4,46.5-4.9c-6.5-6.2-12.6-13.3-17.1-20.3
		C238.9,111.7,228.9,104.6,220.1,96.3z"/>
	
		<radialGradient id="SVGID_9_" cx="397.9801" cy="194.9614" r="45.6886" fx="392.0637" fy="240.2653" gradientTransform="matrix(0.6897 -0.7241 0.2327 0.2217 -65.834 347.221)" gradientUnits="userSpaceOnUse">
		<stop  offset="0" style="stop-color:#14545C"/>
		<stop  offset="1" style="stop-color:#00B27C"/>
	</radialGradient>
	<path class="st11" d="M247.6,114.5c-2.8-4.3-5-8.6-6.2-12.7c-0.9-2.8-1.4-5.5-1.7-8.1c-2.1-3.2-3.8-6.9-5.1-11.1
		c-1.2-3.9-1.8-8.5-1.9-13.4c-5.2,7-9.5,16.9-12.6,27.1C228.9,104.6,238.9,111.7,247.6,114.5z"/>
	
		<radialGradient id="SVGID_10_" cx="397.9801" cy="194.9614" r="45.6886" fx="392.0637" fy="240.2653" gradientTransform="matrix(0.6897 -0.7241 0.2327 0.2217 -65.834 347.221)" gradientUnits="userSpaceOnUse">
		<stop  offset="0" style="stop-color:#6F816E"/>
		<stop  offset="1" style="stop-color:#638AC5"/>
	</radialGradient>
	<path class="st12" d="M282.1,121.7c-5.4-1.2-10.1-3.2-14.1-5.7c-6,1.3-12.7,1-19.9-1.3c-0.2-0.1-0.3-0.1-0.5-0.2
		c4.5,7,10.6,14.1,17.1,20.3c8.7-3.3,16.9-7.5,22.9-12.3C285.7,122.3,283.8,122.1,282.1,121.7z"/>
	
		<radialGradient id="SVGID_11_" cx="397.9801" cy="194.9614" r="45.6886" fx="392.0637" fy="240.2653" gradientTransform="matrix(0.6897 -0.7241 0.2327 0.2217 -65.834 347.221)" gradientUnits="userSpaceOnUse">
		<stop  offset="0" style="stop-color:#6F816E"/>
		<stop  offset="1" style="stop-color:#638AC5"/>
	</radialGradient>
	<path class="st13" d="M239.7,93.8c0.3,2.6,0.9,5.3,1.7,8.1c1.2,4,3.4,8.3,6.2,12.7c0.2,0.1,0.3,0.1,0.5,0.2
		c7.2,2.2,13.9,2.5,19.9,1.3c-3.3-2.2-6.1-4.8-8.4-7.7C251.7,106.2,244.7,101.4,239.7,93.8z"/>
	
		<radialGradient id="SVGID_12_" cx="397.9801" cy="194.9614" r="45.6886" fx="392.0637" fy="240.2653" gradientTransform="matrix(0.6897 -0.7241 0.2327 0.2217 -65.834 347.221)" gradientUnits="userSpaceOnUse">
		<stop  offset="0" style="stop-color:#AFBCAE"/>
		<stop  offset="1" style="stop-color:#F4EA04"/>
	</radialGradient>
	<path class="st14" d="M245.4,69.8c0-4.4,0.9-9,2.8-13.6c-4.3,2-8.4,5-12.3,9c-1.1,1.2-2.2,2.5-3.3,4c0.1,5,0.8,9.5,1.9,13.4
		c1.3,4.2,3,7.9,5.1,11.1C238.6,84.5,240.8,76.4,245.4,69.8z"/>
	
		<radialGradient id="SVGID_13_" cx="397.9801" cy="194.9614" r="45.6886" fx="392.0637" fy="240.2653" gradientTransform="matrix(0.6897 -0.7241 0.2327 0.2217 -65.834 347.221)" gradientUnits="userSpaceOnUse">
		<stop  offset="0" style="stop-color:#AFBCAE"/>
		<stop  offset="1" style="stop-color:#F4EA04"/>
	</radialGradient>
	<path class="st15" d="M259.7,108.2c-3.8-5-6.1-10.9-6.8-17.3c-4.7-6.3-7.4-13.6-7.4-21.2c-4.6,6.6-6.8,14.7-5.7,24
		C244.7,101.4,251.7,106.2,259.7,108.2z"/>
	
		<radialGradient id="SVGID_14_" cx="397.9801" cy="194.9614" r="45.6886" fx="392.0637" fy="240.2653" gradientTransform="matrix(0.6897 -0.7241 0.2327 0.2217 -65.834 347.221)" gradientUnits="userSpaceOnUse">
		<stop  offset="0" style="stop-color:#AFBCAE"/>
		<stop  offset="1" style="stop-color:#F4EA04"/>
	</radialGradient>
	<path class="st16" d="M263.7,55.9c0.9-0.9,1.8-1.8,2.8-2.7c-6.1-0.7-12.3,0.2-18.3,3c-1.9,4.5-2.8,9.1-2.8,13.6
		C249.7,63.7,256.1,58.9,263.7,55.9z"/>
	
		<radialGradient id="SVGID_15_" cx="397.9801" cy="194.9614" r="45.6886" fx="392.0637" fy="240.2653" gradientTransform="matrix(0.6897 -0.7241 0.2327 0.2217 -65.834 347.221)" gradientUnits="userSpaceOnUse">
		<stop  offset="0" style="stop-color:#AFBCAE"/>
		<stop  offset="1" style="stop-color:#F4EA04"/>
	</radialGradient>
	<path class="st17" d="M263.7,55.9c-7.7,3-14,7.8-18.3,13.9c0,7.6,2.7,14.8,7.4,21.2c-0.6-4.8-0.3-9.9,0.8-15.1
		C255.4,68,258.8,61.1,263.7,55.9z"/>
	
		<radialGradient id="SVGID_16_" cx="482.8332" cy="43.8055" r="45.6886" fx="476.9168" fy="89.1094" gradientTransform="matrix(-0.9763 -0.2165 -6.959371e-02 0.3138 778.6884 177.7763)" gradientUnits="userSpaceOnUse">
		<stop  offset="0" style="stop-color:#679F7B"/>
		<stop  offset="1" style="stop-color:#02A9B8"/>
	</radialGradient>
	<path class="st18" d="M327.6,61.9c-2.2,10.8-5.7,21.4-10.4,28.9c0.5,8.9-0.6,19.2-2.7,28.9c19.8-4.7,38.7-14.2,40.4-21.6
		C356.5,90.7,343.4,74.4,327.6,61.9z"/>
	
		<radialGradient id="SVGID_17_" cx="482.8332" cy="43.8055" r="45.6886" fx="476.9168" fy="89.1094" gradientTransform="matrix(-0.9763 -0.2165 -6.959371e-02 0.3138 778.6884 177.7763)" gradientUnits="userSpaceOnUse">
		<stop  offset="0" style="stop-color:#2B886B"/>
		<stop  offset="1" style="stop-color:#00B27C"/>
	</radialGradient>
	<path class="st19" d="M315.1,93.8c-4.4,5.7-9.4,9.6-14.7,12.1c-1.8,4.4-4.6,8.7-8.6,12.8c-1.2,1.3-2.6,2.5-4.2,3.8
		c7.9,0.6,17.5-0.6,26.8-2.8c2.1-9.6,3.2-19.9,2.7-28.9C316.5,91.9,315.8,92.9,315.1,93.8z"/>
	
		<radialGradient id="SVGID_18_" cx="482.8332" cy="43.8055" r="45.6886" fx="476.9168" fy="89.1094" gradientTransform="matrix(-0.9763 -0.2165 -6.959371e-02 0.3138 778.6884 177.7763)" gradientUnits="userSpaceOnUse">
		<stop  offset="0" style="stop-color:#AFBCAE"/>
		<stop  offset="1" style="stop-color:#00A9C2"/>
	</radialGradient>
	<path class="st20" d="M302.2,47.2c2.9,4.4,5.1,8.9,6.4,13c0.8,2.8,1.4,5.4,1.7,8c2.1,3.2,3.8,6.8,5.1,11c1,3.4,1.7,7.4,1.9,11.6
		c4.7-7.5,8.3-18.1,10.4-28.9C319.3,55.3,310.3,49.8,302.2,47.2z"/>
	
		<radialGradient id="SVGID_19_" cx="470.7142" cy="38.5815" r="45.6886" fx="464.7978" fy="83.8854" gradientTransform="matrix(-0.9763 -0.2165 -6.959371e-02 0.3138 769.001 189.7482)" gradientUnits="userSpaceOnUse">
		<stop  offset="0" style="stop-color:#2B886B"/>
		<stop  offset="1" style="stop-color:#00B27C"/>
	</radialGradient>
	<path class="st21" d="M310.2,68.2c1.2,10.3-1.6,19.1-7.3,26c-0.1,3.9-1,7.8-2.6,11.7c5.3-2.5,10.3-6.4,14.7-12.1
		c0.7-0.9,1.4-1.9,2.1-3c-0.2-4.3-0.8-8.2-1.9-11.6C314,75,312.3,71.3,310.2,68.2z"/>
	
		<radialGradient id="SVGID_20_" cx="482.8332" cy="43.8055" r="45.6886" fx="476.9168" fy="89.1094" gradientTransform="matrix(-0.9763 -0.2165 -6.959371e-02 0.3138 778.6884 177.7763)" gradientUnits="userSpaceOnUse">
		<stop  offset="0" style="stop-color:#679F7B"/>
		<stop  offset="1" style="stop-color:#02A9B8"/>
	</radialGradient>
	<path class="st22" d="M310.2,68.2c-0.3-2.6-0.9-5.3-1.7-8c-1.3-4.1-3.5-8.5-6.4-13c-1.2-0.4-2.4-0.7-3.6-1
		c-6.1-1.3-11.8-1.4-16.9-0.4c3.5,2.2,6.4,4.9,8.7,7.9C298.3,55.8,305.3,60.6,310.2,68.2z"/>
	
		<radialGradient id="SVGID_21_" cx="482.8332" cy="43.8055" r="45.6886" fx="476.9168" fy="89.1094" gradientTransform="matrix(-0.9763 -0.2165 -6.959371e-02 0.3138 778.6884 177.7763)" gradientUnits="userSpaceOnUse">
		<stop  offset="0" style="stop-color:#AFBCAE"/>
		<stop  offset="1" style="stop-color:#F4EA04"/>
	</radialGradient>
	<path class="st23" d="M266.5,53.2c1.2,0.1,2.4,0.4,3.7,0.6c7-1.7,13.9-1.8,20.2-0.1c-2.3-3-5.2-5.7-8.7-7.9
		C275.9,47,270.8,49.6,266.5,53.2z"/>
	
		<radialGradient id="SVGID_22_" cx="482.8332" cy="43.8055" r="45.6886" fx="476.9168" fy="89.1094" gradientTransform="matrix(-0.9763 -0.2165 -6.959371e-02 0.3138 778.6884 177.7763)" gradientUnits="userSpaceOnUse">
		<stop  offset="0" style="stop-color:#679F7B"/>
		<stop  offset="1" style="stop-color:#02A9B8"/>
	</radialGradient>
	<path class="st24" d="M290.4,53.7c4.5,5.9,6.8,12.9,7,20.5c3.8,6.2,5.8,13.1,5.5,20c5.6-6.9,8.5-15.8,7.3-26
		C305.3,60.6,298.3,55.8,290.4,53.7z"/>
	
		<radialGradient id="SVGID_23_" cx="482.8332" cy="43.8055" r="45.6886" fx="476.9168" fy="89.1094" gradientTransform="matrix(-0.9763 -0.2165 -6.959371e-02 0.3138 778.6884 177.7763)" gradientUnits="userSpaceOnUse">
		<stop  offset="0" style="stop-color:#AFBCAE"/>
		<stop  offset="1" style="stop-color:#F4EA04"/>
	</radialGradient>
	<path class="st25" d="M289.9,64.9c3,2.9,5.6,6,7.6,9.3c-0.2-7.5-2.5-14.6-7-20.5c-6.3-1.6-13.2-1.6-20.2,0.1
		C277.2,55.5,284,59.3,289.9,64.9z"/>
	
		<radialGradient id="SVGID_24_" cx="482.8332" cy="43.8055" r="45.6886" fx="476.9168" fy="89.1094" gradientTransform="matrix(-0.9763 -0.2165 -6.959371e-02 0.3138 778.6884 177.7763)" gradientUnits="userSpaceOnUse">
		<stop  offset="0" style="stop-color:#6F816E"/>
		<stop  offset="1" style="stop-color:#638AC5"/>
	</radialGradient>
	<path class="st26" d="M282.7,108.8c-4.2,3.5-9.1,6-14.7,7.2c3.9,2.6,8.6,4.5,14.1,5.7c1.7,0.4,3.6,0.6,5.6,0.8
		c1.5-1.2,2.9-2.5,4.2-3.8c3.9-4.1,6.7-8.4,8.6-12.8C294.7,108.5,288.7,109.4,282.7,108.8z"/>
	
		<radialGradient id="SVGID_25_" cx="482.8332" cy="43.8055" r="45.6886" fx="476.9168" fy="89.1094" gradientTransform="matrix(-0.9763 -0.2165 -6.959371e-02 0.3138 778.6884 177.7763)" gradientUnits="userSpaceOnUse">
		<stop  offset="0" style="stop-color:#6F816E"/>
		<stop  offset="1" style="stop-color:#638AC5"/>
	</radialGradient>
	<path class="st27" d="M282.7,108.8c-1.2-0.1-2.3-0.3-3.5-0.6c-6.8,1.6-13.4,1.6-19.6,0c2.3,2.9,5,5.6,8.4,7.7
		C273.6,114.8,278.5,112.3,282.7,108.8z"/>
	
		<radialGradient id="SVGID_26_" cx="482.8332" cy="43.8055" r="45.6886" fx="476.9168" fy="89.1094" gradientTransform="matrix(-0.9763 -0.2165 -6.959371e-02 0.3138 778.6884 177.7763)" gradientUnits="userSpaceOnUse">
		<stop  offset="0" style="stop-color:#6F816E"/>
		<stop  offset="1" style="stop-color:#638AC5"/>
	</radialGradient>
	<path class="st28" d="M285.2,106.4c-0.8,0.8-1.6,1.6-2.5,2.3c6,0.7,12-0.2,17.7-2.8c1.6-3.9,2.5-7.8,2.6-11.7
		C298.5,99.6,292.4,103.8,285.2,106.4z"/>
	<path class="st29" d="M279.2,108.2c1.2,0.2,2.3,0.4,3.5,0.6c0.9-0.7,1.7-1.5,2.5-2.3c-0.9,0.3-1.8,0.6-2.7,0.9
		C281.4,107.7,280.3,107.9,279.2,108.2z"/>
	
		<radialGradient id="SVGID_27_" cx="482.8332" cy="43.8055" r="45.6886" fx="476.9168" fy="89.1094" gradientTransform="matrix(-0.9763 -0.2165 -6.959371e-02 0.3138 778.6884 177.7763)" gradientUnits="userSpaceOnUse">
		<stop  offset="0" style="stop-color:#AFBCAE"/>
		<stop  offset="1" style="stop-color:#F4EA04"/>
	</radialGradient>
	<path class="st30" d="M261.5,99.7c-3.4-2.6-6.3-5.6-8.7-8.8c0.8,6.4,3,12.3,6.8,17.3c6.1,1.6,12.8,1.6,19.6,0
		C273.1,106.9,267,104,261.5,99.7z"/>
	<path class="st29" d="M270.2,53.8c-1.2-0.3-2.4-0.5-3.7-0.6c-1,0.8-1.9,1.7-2.8,2.7c1.2-0.5,2.4-0.9,3.6-1.3
		C268.3,54.3,269.2,54.1,270.2,53.8z"/>
	
		<radialGradient id="SVGID_28_" cx="482.8332" cy="43.8055" r="45.6886" fx="476.9168" fy="89.1094" gradientTransform="matrix(-0.9763 -0.2165 -6.959371e-02 0.3138 778.6884 177.7763)" gradientUnits="userSpaceOnUse">
		<stop  offset="0" style="stop-color:#679F7B"/>
		<stop  offset="1" style="stop-color:#02A9B8"/>
	</radialGradient>
	<path class="st31" d="M297.4,74.2c0.1,4.7-0.6,9.6-2.1,14.5c-2.1,6.9-5.6,13-10.2,17.7c7.2-2.7,13.3-6.8,17.8-12.2
		C303.2,87.3,301.2,80.4,297.4,74.2z"/>
	<g>
		
			<radialGradient id="SVGID_29_" cx="482.8332" cy="43.8055" r="45.6886" fx="476.9168" fy="89.1094" gradientTransform="matrix(-0.9763 -0.2165 -6.959371e-02 0.3138 778.6884 177.7763)" gradientUnits="userSpaceOnUse">
			<stop  offset="0" style="stop-color:#AFBCAE"/>
			<stop  offset="1" style="stop-color:#FFFFFF"/>
		</radialGradient>
		<path class="st32" d="M295.4,88.8c1.5-4.9,2.2-9.8,2.1-14.5c-2-3.3-4.6-6.5-7.6-9.3c-5.9-5.6-12.6-9.4-19.7-11
			c-0.9,0.2-1.9,0.5-2.8,0.8c-1.2,0.4-2.4,0.8-3.6,1.3c-4.9,5.3-8.3,12.1-10.1,20c-1.1,5.2-1.4,10.2-0.8,15.1
			c2.4,3.2,5.3,6.2,8.7,8.8c5.5,4.3,11.5,7.2,17.7,8.5c1.1-0.3,2.2-0.5,3.3-0.9c0.9-0.3,1.8-0.6,2.7-0.9
			C289.8,101.8,293.2,95.7,295.4,88.8z"/>
	</g>
</g>
</svg>
