<?xml version="1.0" encoding="utf-8"?>
<!-- Generator: Adobe Illustrator 22.0.1, SVG Export Plug-In . SVG Version: 6.00 Build 0)  -->
<svg version="1.1" id="Layer_1" xmlns="http://www.w3.org/2000/svg" xmlns:xlink="http://www.w3.org/1999/xlink" x="0px" y="0px"
	 viewBox="0 0 488.7 504.2" style="enable-background:new 0 0 488.7 504.2;" xml:space="preserve">
<style type="text/css">
	.st0{fill:#FEFEFD;}
	.st1{fill:#40803C;}
	.st2{fill:#8BBEC3;}
	.st3{fill:#EC832F;}
	.st4{fill:none;}
	.st5{fill:#808285;}
	.st6{fill:#FFFFFF;}
</style>
<g>
	<path class="st6" d="M81.7,142.6c-0.1,0.1-0.2,0.3-0.3,0.4c0.2-0.1,0.4-0.3,0.6-0.5C82,142.6,81.9,142.6,81.7,142.6z"/>
	<path class="st6" d="M68.7,341.6c0.1-0.2,0.1-0.4,0.2-0.6C68.8,341.2,68.7,341.4,68.7,341.6z"/>
	<path class="st6" d="M58.8,184.2c-0.1-0.3-0.2-0.5-0.3-0.8C58.7,183.7,58.7,183.9,58.8,184.2z"/>
	<path class="st6" d="M58.6,183.4c-0.6-1.9-1.1-3.8-1.4-5.7C57.5,179.7,57.9,181.6,58.6,183.4z"/>
	<path class="st6" d="M68,343.6c0.1-0.2,0.1-0.5,0.2-0.7C68.1,343.2,68.1,343.4,68,343.6z"/>
	<path class="st6" d="M66.8,350.2c0-0.3,0-0.6,0.1-0.9C66.9,349.6,66.9,349.9,66.8,350.2z"/>
	<path class="st6" d="M67,348.2c0-0.3,0.1-0.6,0.1-0.8C67.1,347.7,67.1,348,67,348.2z"/>
	<path class="st6" d="M67.4,345.8c0.1-0.3,0.1-0.5,0.2-0.8C67.6,345.3,67.5,345.6,67.4,345.8z"/>
	<path class="st6" d="M425.9,155.1c0,0.2,0,0.5,0,0.7C425.9,155.6,425.9,155.3,425.9,155.1z"/>
	<path class="st6" d="M435.3,326.5c0.1,0.5,0.2,0.9,0.2,1.4C435.5,327.4,435.4,327,435.3,326.5z"/>
	<path class="st6" d="M434.1,322c-0.3-0.9-0.7-1.9-1.1-2.7c0,0,0,0,0,0C433.4,320.1,433.7,321,434.1,322z"/>
	<path class="st6" d="M424.7,162.2c-0.1,0.4-0.2,0.8-0.4,1.2C424.5,163,424.6,162.6,424.7,162.2z"/>
	<path class="st6" d="M435.9,331.1C435.9,331.1,435.9,331.1,435.9,331.1c0-1.1-0.1-2.1-0.3-3.1C435.7,329,435.8,330,435.9,331.1z"/>
	<path class="st6" d="M425.6,158c0,0.3-0.1,0.7-0.2,1C425.5,158.7,425.6,158.4,425.6,158z"/>
	<path class="st6" d="M425.4,159.4c-0.1,0.4-0.1,0.7-0.2,1.1C425.2,160.1,425.3,159.8,425.4,159.4z"/>
	<path class="st6" d="M435,325.1c0.1,0.4,0.2,0.8,0.3,1.2C435.2,325.9,435.1,325.5,435,325.1z"/>
	<path class="st6" d="M425.8,156.6c0,0.3-0.1,0.6-0.1,0.9C425.7,157.2,425.8,156.9,425.8,156.6z"/>
	<path class="st6" d="M434.6,323.6c0.1,0.4,0.2,0.8,0.3,1.2C434.8,324.4,434.7,324,434.6,323.6z"/>
	<path class="st6" d="M424.3,163.4c-0.1,0.4-0.3,0.8-0.5,1.2C424,164.3,424.2,163.9,424.3,163.4z"/>
	<path class="st6" d="M434.1,322.1c0.1,0.4,0.3,0.8,0.4,1.2C434.4,323,434.3,322.5,434.1,322.1z"/>
	<path class="st6" d="M425.1,160.8c-0.1,0.4-0.2,0.8-0.3,1.1C424.9,161.6,425,161.2,425.1,160.8z"/>
	<path class="st6" d="M91.9,382.6c1.8,0.3,3.7,0.5,5.6,0.5l0,0C95.5,383.1,93.7,382.9,91.9,382.6z"/>
	<path class="st6" d="M239,456.1c-0.7-0.5-1.5-1.1-2.1-1.7C237.6,455,238.3,455.5,239,456.1z"/>
	<path class="st6" d="M239.1,456.1c0.7,0.5,1.5,1.1,2.3,1.5l0,0C240.6,457.2,239.8,456.7,239.1,456.1z"/>
	<path class="st6" d="M90.4,382.3c-0.4-0.1-0.8-0.2-1.2-0.3C89.6,382.1,90,382.2,90.4,382.3z"/>
	<path class="st6" d="M89.1,381.9c-0.4-0.1-0.8-0.2-1.2-0.4C88.3,381.7,88.7,381.8,89.1,381.9z"/>
	<path class="st6" d="M91.8,382.6c-0.4-0.1-0.8-0.2-1.2-0.3C91,382.4,91.4,382.5,91.8,382.6z"/>
	<path class="st6" d="M87.8,381.5c-0.4-0.1-0.8-0.3-1.2-0.4C87,381.2,87.4,381.4,87.8,381.5z"/>
	<path class="st6" d="M234.8,452.4c-0.6-0.7-1.3-1.4-1.8-2.1C233.6,451,234.2,451.7,234.8,452.4z"/>
	<path class="st6" d="M236.8,454.3c-0.7-0.6-1.4-1.2-2-1.9C235.5,453.1,236.2,453.7,236.8,454.3z"/>
	<path class="st6" d="M81.2,143.1c-3.6,0.8-7,2.2-10,4.1c1.7-1,3.5-2,5.3-2.7C78.1,144,79.7,143.7,81.2,143.1z"/>
	<path class="st6" d="M276.2,455.5L276.2,455.5c1.5-1.2,2.9-2.4,4.1-3.8C279.1,453.1,277.7,454.4,276.2,455.5z"/>
	<path class="st6" d="M418.2,360.4c-0.4,0.2-0.9,0.4-1.4,0.6C417.3,360.8,417.7,360.6,418.2,360.4z"/>
	<path class="st6" d="M283.7,447.2c-0.5,0.8-1,1.6-1.6,2.3C282.7,448.7,283.2,448,283.7,447.2z"/>
	<path class="st6" d="M416.8,361c-1.9,0.8-3.9,1.4-5.9,1.8C413,362.4,415,361.8,416.8,361z"/>
	<path class="st6" d="M422.2,358.1c-0.4,0.3-0.8,0.5-1.3,0.8C421.3,358.7,421.8,358.4,422.2,358.1z"/>
	<path class="st6" d="M420.8,359c-0.4,0.2-0.8,0.5-1.3,0.7C420,359.5,420.4,359.2,420.8,359z"/>
	<path class="st6" d="M419.5,359.7c-0.4,0.2-0.9,0.4-1.3,0.7C418.7,360.2,419.1,359.9,419.5,359.7z"/>
	<path class="st6" d="M282.1,449.5c-0.6,0.7-1.1,1.5-1.8,2.2C281,451,281.5,450.3,282.1,449.5z"/>
	<path class="st6" d="M404.4,124.1c0.3,0.1,0.5,0.2,0.8,0.3C404.9,124.3,404.6,124.2,404.4,124.1z"/>
	<path class="st6" d="M400.4,123.1c0.3,0.1,0.7,0.1,1,0.2C401,123.2,400.7,123.2,400.4,123.1z"/>
	<path class="st6" d="M406,124.7c0.2,0.1,0.5,0.2,0.7,0.3C406.4,124.8,406.2,124.7,406,124.7z"/>
	<path class="st6" d="M254.1,49.9c0.8,0.6,1.5,1.2,2.3,1.9C255.6,51.1,254.8,50.5,254.1,49.9z"/>
	<path class="st6" d="M396.1,122.7c1.2,0,2.4,0.2,3.6,0.3C398.6,122.8,397.4,122.7,396.1,122.7z"/>
	<path class="st6" d="M402.1,123.5c0.4,0.1,0.9,0.2,1.3,0.3C403,123.7,402.5,123.6,402.1,123.5z"/>
	<path class="st6" d="M254.1,49.9c-1.2-0.9-2.4-1.7-3.7-2.4l0,0C251.7,48.2,252.9,49,254.1,49.9z"/>
	<g>
		<path class="st6" d="M48.2,252.6c0-20.4,3.1-40.2,8.9-58.7c-1.9-2.8-3.3-5.8-4.4-9c-7.4,21.2-11.5,44-11.5,67.7
			c0,32.3,7.5,62.8,20.8,90c0.8-3,2-6,3.6-8.7C54.5,309,48.2,281.5,48.2,252.6z"/>
		<path class="st6" d="M444.5,252.6c0,20.6-3.2,40.4-9,59.1c1.9,2.7,3.4,5.7,4.4,8.9c7.5-21.3,11.6-44.1,11.6-67.9
			c0-32.2-7.5-62.6-20.7-89.7c-0.8,3.1-2,6.1-3.6,8.8C438.3,196.4,444.5,223.8,444.5,252.6z"/>
		<path class="st6" d="M102.6,388.8c-1.6,0.2-3.3,0.3-4.9,0.3c-1.5,0-3-0.1-4.5-0.3c34.4,38.7,83.2,64.3,137.9,68.3
			c-2.2-2.3-4.2-4.8-5.8-7.6C177.2,444.5,134.2,422.1,102.6,388.8z"/>
		<path class="st6" d="M201.9,59.5c0.8-1.7,1.6-3.3,2.7-4.9c0.8-1.2,1.6-2.3,2.5-3.4c-54.3,10.6-101.1,42.7-130.9,87
			c3.2-1.1,6.5-1.7,9.8-1.8C113.6,98.3,154.6,70.4,201.9,59.5z"/>
		<path class="st6" d="M291.2,445.6c-1.3,3-2.9,5.7-4.9,8.2c53.7-10.7,99.9-42.4,129.7-86.1c-3.1,1-6.4,1.6-9.8,1.7
			C378.7,407,338.2,434.6,291.2,445.6z"/>
		<path class="st6" d="M264,51.1c1.2,1.4,2.3,2.9,3.2,4.5c48.5,5.1,91.8,27.7,123.4,61.4c1.5-0.2,2.9-0.3,4.4-0.3
			c1.7,0,3.4,0.1,5.1,0.4c-34.6-39.2-83.8-65.1-139-69C262.1,49,263.1,50,264,51.1z"/>
	</g>
	<g>
		<path class="st6" d="M318.5,130.1c-2.7,0.7-2.8,0.7-1.9,3.4c3.4,9,5.4,18.3,6.1,27.8c0.5,6.3,0.3,12.6-0.3,18.8
			c-0.2,1.5,0.2,2.7,1,3.9c10.2,15.2,20.2,30.5,30.5,45.5c2.4,3.5,2.4,4.8-0.2,8.2c-7.3,9.5-15.7,17.8-25.7,24.4
			c-1.5,1-2.8,2.2-3.7,3.7c-3.1,5.1-0.5,11.9,5.2,13.6c2.1,0.6,4.2,0.5,6.3-0.2c4.7-1.5,9.3-3.4,13.7-5.6c31.6-16,50.9-47,53.1-81.3
			c0.1-1.8-0.3-2.2-2.1-1.9c-1.9,0.3-3.8,0.5-5.7,0.5c-1.1,0-2.2-0.1-3.4-0.2c-12.6-1.4-22.4-7.4-28.9-18.4
			c-4.2-7.1-5.9-14.9-5-23.2c0.4-3.3,1.2-6.4,2.4-9.4c0.6-1.5,0.4-2-0.9-2.8c-8-5-16.6-7.9-26-8.3
			C328.2,128.4,323.3,128.9,318.5,130.1z"/>
		<path class="st6" d="M133.9,369c8.6,5.4,18,8.1,29,8.2c1-0.1,2.7-0.2,4.5-0.3c2.7-0.2,5.3-0.9,8-1.4c1.2-0.2,1.5-0.8,1.2-2
			c0-0.2-0.1-0.4-0.2-0.6c-3.5-9.2-5.6-18.8-6.3-28.6c-0.4-6.1-0.4-12.1,0.3-18.2c0.2-1.6-0.1-3-1-4.4
			c-10.2-15.2-20.2-30.5-30.5-45.5c-2.4-3.4-2.3-4.9,0.2-8.2c7.3-9.6,15.8-17.9,25.9-24.5c1.4-0.9,2.5-2,3.4-3.4
			c3.4-5.4,0.6-12.4-5.6-13.9c-1.9-0.5-3.8-0.3-5.7,0.3c-4.8,1.5-9.4,3.4-13.9,5.6c-31.1,15.8-50,46-52.9,78.9c-0.1,1-0.2,2-0.1,3
			c0,1.1,0.4,1.4,1.5,1.3c0.3,0,0.5-0.1,0.8-0.1c8.4-1.2,16.3,0.3,23.8,4.3c16.1,8.7,23.6,29.3,16.7,46.2
			C132.1,367.5,132.2,367.9,133.9,369z"/>
		<path class="st6" d="M311.9,137.4c-2-5.9-4.6-11.5-7.7-16.9c-4-7-8.8-13.4-14.4-19.2c-3.9-4-8.1-7.6-12.5-10.9
			c-1.5-1.1-3-2.2-4.6-3.2c-1.1-0.7-1.6-0.5-2.1,0.6c-0.1,0.2-0.2,0.5-0.3,0.7c-0.4,1-0.8,2.1-1.3,3.1c-3.6,6.6-8.6,11.9-15,15.8
			c-4.4,2.6-9.2,4.1-14.3,4.6c-3.2,0.3-6.5,0.3-9.7-0.2c-3.5-0.5-6.8-1.4-9.9-2.8c-5.3-2.4-9.7-6-13.3-10.5
			c-1.4-1.7-1.8-1.8-3.8-0.8c-4.5,2.1-8.3,5.2-11.9,8.6c-3.4,3.2-6.3,6.9-8.7,11c-2.3,4-4.2,8.1-5.4,12.6c-0.5,1.8,0.2,2.3,1.6,2.6
			c1.2,0.2,2.4,0.4,3.6,0.6c8.2,1.7,16,4.3,23.6,7.9c6,2.8,11.5,6.2,16.8,10.1c1.1,0.8,2.4,1.2,3.7,1c3.5-0.5,7.1-0.6,10.6-0.8
			c2.5-0.2,5-0.4,7.5-0.5c1.7-0.1,3.4-0.2,5.1-0.3c4.2-0.3,8.4-0.7,12.6-0.9c2.6-0.1,5.1-0.3,7.6-0.5c1.9-0.1,3.7-0.2,5.6-0.3
			c2.7-0.2,5.3-0.4,8-0.5c1.6-0.1,2.7,0.6,3.5,2c1.7,2.8,2.8,5.8,3.9,8.9c3.2,9.2,5.5,18.6,5.8,28.3c0.1,3.5,1.5,6.4,4.7,8.2
			c6,3.4,12.7-0.5,13.9-5.8c1.5-6.9,2.3-13.8,2.2-21.2c0.1-4.3-0.3-8.9-0.9-13.4C315.3,149.1,313.9,143.1,311.9,137.4z"/>
		<path class="st6" d="M188.6,385.3c3.8,6.6,8.2,12.7,13.5,18.2c2.1,2.2,4.2,4.2,6.4,6.2c3.6,3.2,7.4,6.1,11.4,8.8
			c1.3,0.9,1.9,0.7,2.5-0.9c0.3-0.7,0.6-1.5,0.9-2.2c2.5-5.5,6.3-9.9,10.9-13.8c6.3-5.2,13.6-7.7,21.7-8.1c3.3-0.1,6.6,0.2,9.8,0.9
			c5.6,1.2,10.5,3.7,14.9,7.3c2.2,1.8,4.2,3.9,6,6.2c0.8,0.9,1.2,1,2.4,0.6c1.2-0.4,2.2-1,3.3-1.7c6.1-3.8,11.3-8.5,15.6-14.3
			c3.6-5,6.3-10.5,8-16.4c0.5-1.8,0-2.6-1.9-2.8c-0.9-0.1-1.8-0.2-2.7-0.4c-8.6-1.8-16.9-4.5-24.8-8.3c-5.6-2.7-11-5.9-16-9.7
			c-1.1-0.8-2.3-1.2-3.7-1.2c-1.9,0.1-3.7,0.3-5.6,0.4c-3.8,0.2-7.6,0.6-11.4,0.8c-2.7,0.2-5.3,0.2-8,0.4c-2,0.2-3.9,0.2-5.9,0.3
			c-4,0.3-8,0.6-11.9,0.9c-2.5,0.2-5.1,0.1-7.6,0.4c-2.2,0.3-4.4,0.1-6.5,0.5c-1.4,0.2-2.8-0.3-3.5-1.7c-0.8-1.5-1.7-2.9-2.4-4.5
			c-2.7-6.9-4.9-14.1-6.3-21.4c-0.7-4.1-1.3-8.2-1.4-12.3c0-0.5-0.1-1-0.1-1.4c-0.7-4.2-5-7.4-9.2-7.2c-3.7-0.3-8.2,2.5-9.2,6.9
			c-1.4,6.3-2.1,12.6-2.3,19c-0.1,5,0.2,9.9,0.9,14.8c0.7,5.3,1.8,10.6,3.4,15.7C182.1,372.4,185,379,188.6,385.3z"/>
		<path class="st6" d="M118.1,146.9c-2.4,1.1-2.4,1.5-0.8,3.6c0.1,0.2,0.3,0.3,0.4,0.5c6.2,8.3,8.6,17.6,7,27.7
			c-1.9,12.7-8.9,21.9-20.1,28c-3.4,1.8-7,2.8-10.8,3.5c-2.1,0.4-2.8,1.1-2.7,3.2c0.1,3.7,0.3,7.3,0.9,11
			c1.8,10.3,6.4,19.1,13.5,26.7c0.3,0.3,0.5,0.6,0.8,0.8c1,0.9,1.6,0.9,2.4,0c0.2-0.2,0.4-0.4,0.5-0.6c2.1-2.7,4.4-5.2,6.9-7.6
			c7.9-7.7,16.6-14.3,26.8-18.9c1.1-0.5,2.1-1.1,3.1-1.7c2.8-1.7,4.8-4,6-7.1c0.7-1.8,1.5-3.6,2.4-5.4c5.8-11.8,11.7-23.6,17.5-35.4
			c1.2-2.4,2.4-4.9,3.7-7.3c0.7-1.4,1.2-1.7,2.5-1.5c5.3,0.7,10.6,1.4,15.8,2.6c7.9,1.8,15.4,4.7,22.6,8.3c3.3,1.7,8.3,1.1,11.3-2.5
			c2.8-3.4,2.8-8,0.1-11.5c-1-1.4-2.3-2.5-3.7-3.6c-18.1-15.2-39.1-22.6-62.6-23.2c-4.7,0.1-9.3,0.4-13.9,1
			C137.4,139.2,127.5,142.3,118.1,146.9z"/>
		<path class="st6" d="M391.3,297.6c2.4-1,4.9-1.6,7.4-2c2.2-0.4,2.8-1.1,2.8-3.3c0-4.6-0.4-9.1-1.4-13.6c-2-9.3-6.6-17.1-13-24.1
			c-1.8-2-2.1-1.9-3.9,0.2c-9.3,11-20.2,20-33.3,26.2c-1.3,0.6-2.5,1.2-3.6,2c-2.2,1.5-4,3.4-5.1,5.8c-2,4.9-4.4,9.6-6.8,14.3
			c-5.7,11.4-11.3,22.8-17,34.2c-1,2.1-1.2,2.2-3.5,1.9c-5.8-0.7-11.5-1.6-17.1-3c-7-1.8-13.8-4.4-20.3-7.6c-2.3-1.1-4.5-1.4-7-0.6
			c-5.7,1.7-9.3,9.2-4.2,15.1c1.1,1.3,2.4,2.4,3.8,3.5c18,15,38.8,22.2,62.1,22.7c4.4,0,8.7-0.3,12.9-0.9
			c10.7-1.4,20.9-4.7,30.6-9.4c2.3-1.1,2.4-1.5,0.8-3.5c-6.6-8.5-9.2-18.2-7.5-28.7C370.4,312.7,378.3,303,391.3,297.6z"/>
		<path class="st6" d="M128.6,352.2c0-7.5-2.7-14.4-7.1-19.8c-2.5-3-5.5-5.5-9-7.4c-4.4-2.4-9.4-3.8-14.8-3.8
			c-6.7,0-12.9,2.1-17.9,5.7c-3.2,2.3-5.9,5.1-8,8.4c-1.1,1.7-2.1,3.6-2.8,5.6c-0.1,0.2-0.1,0.4-0.2,0.6c-0.2,0.5-0.3,0.9-0.5,1.4
			c-0.1,0.2-0.1,0.4-0.2,0.7c-0.1,0.5-0.3,0.9-0.4,1.4c-0.1,0.3-0.1,0.5-0.2,0.8c-0.1,0.5-0.2,1.1-0.3,1.6c0,0.3-0.1,0.5-0.1,0.8
			c0,0.4-0.1,0.7-0.1,1.1c0,0.3-0.1,0.6-0.1,0.9c0,0.7-0.1,1.3-0.1,2c0,13.2,8.2,24.4,19.8,28.8c0.4,0.2,0.8,0.3,1.2,0.4
			c0,0,0.1,0,0.1,0c0.4,0.1,0.8,0.3,1.2,0.4c0,0,0.1,0,0.1,0c0.4,0.1,0.8,0.2,1.2,0.3c0,0,0.1,0,0.1,0c0.4,0.1,0.8,0.2,1.2,0.3
			c0,0,0,0,0.1,0c1.8,0.3,3.7,0.5,5.6,0.5l0,0c0.1,0,0.2,0,0.2,0C114.8,383.1,128.6,369.3,128.6,352.2z"/>
		<path class="st6" d="M281,411.3c-2.5-3-5.5-5.5-9-7.4c-4.4-2.4-9.4-3.8-14.8-3.8c-6.7,0-12.9,2.1-17.9,5.7c-3.2,2.3-5.9,5.1-8,8.4
			c-3.1,4.8-5,10.6-5,16.8c0,7.2,2.5,13.9,6.7,19.1c0.6,0.7,1.2,1.4,1.8,2.1c0,0,0,0,0,0c0.6,0.7,1.3,1.3,2,1.9c0,0,0,0,0.1,0
			c0.7,0.6,1.4,1.2,2.1,1.7c0,0,0,0,0.1,0c0.7,0.5,1.5,1.1,2.3,1.5l0,0c4.6,2.8,10.1,4.4,15.9,4.4c7.1,0,13.7-2.4,18.9-6.5l0,0
			c1.5-1.2,2.9-2.4,4.1-3.8c0,0,0,0,0,0c0.6-0.7,1.2-1.4,1.8-2.2c0,0,0,0,0,0c0.6-0.7,1.1-1.5,1.6-2.3c2.9-4.7,4.5-10.2,4.5-16.1
			C288.2,423.6,285.5,416.7,281,411.3z"/>
		<path class="st6" d="M435.6,328C435.6,328,435.6,327.9,435.6,328c-0.1-0.6-0.2-1-0.2-1.5c0-0.1,0-0.1,0-0.2
			c-0.1-0.4-0.2-0.8-0.3-1.2c0-0.1,0-0.2-0.1-0.3c-0.1-0.4-0.2-0.8-0.3-1.2c0-0.1,0-0.2-0.1-0.2c-0.1-0.4-0.3-0.8-0.4-1.2
			c0-0.1,0-0.1-0.1-0.2c-0.3-0.9-0.7-1.9-1.1-2.7c0,0,0,0,0,0c-1.1-2.4-2.5-4.6-4.2-6.6c-2.5-3-5.5-5.5-9-7.4
			c-4.4-2.4-9.4-3.8-14.8-3.8c-6.7,0-12.9,2.1-17.9,5.7c-3.2,2.3-5.9,5.1-8,8.4c-3.1,4.8-5,10.6-5,16.8c0,17.1,13.8,30.9,30.9,30.9
			c2,0,4-0.2,6-0.6c2-0.4,4-1,5.9-1.8c0,0,0,0,0,0c0.5-0.2,0.9-0.4,1.4-0.6c0,0,0,0,0,0c0.4-0.2,0.9-0.4,1.3-0.7c0,0,0,0,0.1,0
			c0.4-0.2,0.8-0.5,1.3-0.7c0,0,0,0,0.1,0c0.4-0.3,0.8-0.5,1.3-0.8c8.3-5.5,13.7-15,13.7-25.7c0-0.5,0-0.9,0-1.4c0,0,0,0,0,0
			C435.8,330,435.7,329,435.6,328z"/>
		<path class="st6" d="M377.1,128.4c-3.2,2.3-5.9,5.1-8,8.4c-3.1,4.8-5,10.6-5,16.8c0,17.1,13.8,30.9,30.9,30.9
			c13.2,0,24.4-8.2,28.8-19.8c0.2-0.4,0.3-0.8,0.5-1.2c0,0,0-0.1,0-0.1c0.1-0.4,0.3-0.8,0.4-1.2c0-0.1,0-0.1,0.1-0.2
			c0.1-0.4,0.2-0.8,0.3-1.1c0-0.1,0-0.2,0.1-0.3c0.1-0.4,0.2-0.7,0.2-1.1c0-0.1,0.1-0.3,0.1-0.4c0.1-0.3,0.1-0.6,0.2-1
			c0-0.2,0.1-0.4,0.1-0.6c0-0.3,0.1-0.6,0.1-0.9c0-0.3,0-0.5,0.1-0.8c0-0.2,0-0.5,0-0.7c0-0.5,0-1,0-1.5c0-7.5-2.7-14.4-7.1-19.8
			c-2.5-3-5.5-5.5-9-7.4c-1-0.6-2.1-1-3.2-1.5c-0.2-0.1-0.5-0.2-0.7-0.3c-0.3-0.1-0.6-0.2-0.9-0.3c-0.2-0.1-0.5-0.2-0.8-0.3
			c-0.3-0.1-0.6-0.2-1-0.3c-0.4-0.1-0.9-0.2-1.3-0.3c-0.2-0.1-0.5-0.1-0.7-0.2c-0.3-0.1-0.7-0.1-1-0.2c-0.2,0-0.4-0.1-0.6-0.1
			c-1.2-0.2-2.4-0.3-3.6-0.3c-0.4,0-0.7,0-1.1,0C388.4,122.7,382.2,124.8,377.1,128.4z"/>
		<path class="st6" d="M235.6,105.6c17.1,0,30.9-13.8,30.9-30.9c0-7.5-2.7-14.4-7.1-19.8c-0.9-1.1-1.9-2.2-3-3.2
			c-0.7-0.7-1.5-1.3-2.3-1.9c-1.2-0.9-2.4-1.7-3.7-2.4l0,0l0,0c-4.4-2.4-9.4-3.8-14.8-3.8c-6.7,0-12.9,2.1-17.9,5.7
			c-3.2,2.3-5.9,5.1-8,8.4c-3.1,4.8-5,10.6-5,16.8C204.7,91.7,218.5,105.6,235.6,105.6z"/>
		<path class="st6" d="M87.8,204.2c17.1,0,30.9-13.8,30.9-30.9c0-7.5-2.7-14.4-7.1-19.8c-2.5-3-5.5-5.5-9-7.4
			c-4.4-2.4-9.4-3.8-14.8-3.8c-2.3,0-4.5,0.3-6.6,0.7c-1.5,0.5-3.1,0.9-4.7,1.5c-1.9,0.7-3.6,1.7-5.3,2.7c-0.4,0.3-0.9,0.6-1.3,0.9
			c-3.2,2.3-5.9,5.1-8,8.4c-3.1,4.8-5,10.6-5,16.8c0,1.5,0.1,3,0.3,4.4c0.3,1.9,0.8,3.8,1.4,5.7c0,0,0,0,0,0
			c0.1,0.3,0.2,0.5,0.3,0.8C63.3,195.9,74.5,204.2,87.8,204.2z"/>
		<path class="st6" d="M93.6,143c-3.7-0.7-7.4-0.8-11.1,0c-0.3,0.1-0.6,0.1-1,0.1l0,0c0,0,0,0,0,0c0,0-0.1,0-0.1,0
			c-1.6,0.6-3.2,0.9-4.8,1.5c-2.2,0.8-4.3,2.1-6.3,3.2c0,0,0,0,0,0c0,0,0,0,0,0c-0.1,0.1-0.2,0.1-0.2,0.2c-0.3,0.3-0.7,0.5-1,0.8
			c-5.2,4-8.7,9.1-10.7,15.3c-1.1,3.3-1.4,6.7-1.4,10.1c0,0.1,0,0.2,0,0.3c0,0,0,0,0,0c0.2,4.1,1.2,8.1,2.8,11.9
			c0,0.1,0,0.1,0.1,0.2c0,0,0,0,0,0c0,0,0,0,0,0c2.4,4.9,5.8,8.9,10.2,12.1c17.7,12.5,42.4,3.5,47.8-17.4
			C121.7,166.3,113.7,146.8,93.6,143z"/>
		<path class="st6" d="M435.9,331.1c-0.2-4.2-1.2-8.2-2.9-11.8c-5-10.5-15.6-17.7-28-17.7c-17.1,0-30.9,13.8-30.9,30.9
			c0,17.1,13.8,30.9,30.9,30.9c2,0,4-0.2,6-0.6c4.1-0.8,7.9-2.4,11.3-4.7c8.3-5.5,13.7-15,13.7-25.7
			C435.9,332,435.9,331.5,435.9,331.1z"/>
		<g>
			<path class="st6" d="M266.5,74.7c0-7.5-2.7-14.4-7.1-19.8c-2.5-3-5.5-5.5-9-7.4c-4.4-2.4-9.4-3.8-14.8-3.8
				c-6.7,0-12.9,2.1-17.9,5.7c-3.2,2.3-5.9,5.1-8,8.4c-3.1,4.8-5,10.6-5,16.8c0,17.1,13.8,30.9,30.9,30.9
				C252.7,105.6,266.5,91.7,266.5,74.7z"/>
		</g>
		<path class="st6" d="M257.3,400.2c-17.1,0-30.9,13.8-30.9,30.9c0,7.2,2.5,13.9,6.7,19.1c2.3,2.9,5.2,5.5,8.4,7.4
			c4.6,2.8,10.1,4.4,15.9,4.4c7.1,0,13.7-2.4,18.9-6.5c3-2.3,5.5-5.1,7.5-8.4c2.9-4.7,4.5-10.2,4.5-16.1
			C288.2,414,274.3,400.2,257.3,400.2z"/>
		<path class="st6" d="M406.8,125c-3.4-1.4-7.1-2.2-11-2.3c-0.3,0-0.5,0-0.8,0c-17.1,0-30.9,13.8-30.9,30.9
			c0,17.1,13.8,30.9,30.9,30.9c13.1,0,24.4-8.2,28.8-19.8c1.3-3.4,2.1-7.2,2.1-11.1c0,0,0,0,0,0C426,140.7,418.1,129.6,406.8,125z"
			/>
		<path class="st6" d="M97.7,321.3c-13,0-24.2,8.1-28.7,19.5c-1.3,3.4-2.1,7-2.2,10.9c0,0.2,0,0.4,0,0.6c0,13.2,8.2,24.4,19.8,28.8
			c3.4,1.3,7,2,10.9,2.1c0.1,0,0.2,0,0.2,0c17.1,0,30.9-13.8,30.9-30.9S114.8,321.3,97.7,321.3z"/>
	</g>
	<g>
		<g>
			<path class="st6" d="M61.3,403.4c-20.4-26.9-35.7-56.4-45.5-88.7c-5.3-17.4-8.5-35.1-9.4-53.2C6,252.7,6.1,243.8,6.9,235
				c0.7-8.2,1.9-16.4,3.6-24.5c0.3-1.3,0.4-2.7,1-4c2.9,0.6,5.6,1.7,8.6,2.3c-1.7-6.8-3.4-13.4-5.1-20.2c-5.1,5-10,9.7-15,14.5
				c0.5,0.2,0.8,0.3,1.2,0.4c2,0.6,4,1.1,6,1.7c1.5,0.5,1.3,0.1,1,1.8c0,0.1,0,0.2-0.1,0.3c-2.5,10.6-4,21.4-4.6,32.2
				c-0.4,6.4-0.5,12.9-0.2,19.3c0.3,8.5,1.1,16.9,2.4,25.3c1.8,11.4,4.4,22.6,7.8,33.6c5.8,18.9,13.7,36.8,23.4,54
				c7,12.5,14.8,24.4,23.7,35.6c0.5,0.6,0.8,1,1.1,1.3l2.1-2.1C63,405.6,62.2,404.5,61.3,403.4z"/>
		</g>
		<g>
			<path class="st6" d="M487.2,221.1c-0.8-8-1.9-16-3.5-23.9c-0.4-2.2-1-4.5-1.4-6.7l-2.9,0.7c0,0.2,0.1,0.4,0.1,0.6
				c1,4.5,1.9,9,2.6,13.5c1.6,9.9,2.6,19.9,3.1,29.9c0.6,10.7,0.5,21.4-0.1,32.1c-0.6,10.1-1.8,20.2-3.5,30.1
				c-2.4,13.5-5.9,26.6-10.6,39.4c-7.6,20.5-18.2,39.3-32,56.3c-0.3,0.3-0.4,0.7-1,0.9c-2.1-1.9-4.2-3.8-6.6-5.9
				c-1.5,7-2.9,13.6-4.4,20.5c6.8-2.2,13.2-4.3,20-6.5c-2-1.8-3.8-3.4-5.6-5c-1.3-1.1-1-0.9-0.1-2.1c0.1-0.1,0.1-0.2,0.2-0.2
				c9.8-12,17.9-25,24.6-39c10.2-21.1,16.5-43.4,19.8-66.5c1.3-9.2,2.2-18.5,2.5-27.8C488.9,248,488.6,234.6,487.2,221.1z"/>
		</g>
		<g>
			<path class="st6" d="M38.5,153.8l-13.4-5.9l6.2,9.6l-0.1,0.1l-11.2,1.9l13.3,5.9l-2,4.4l-20.5-9.1l2.2-4.9l11-1.5l-6.3-9.2
				l2.2-4.9l20.5,9.1L38.5,153.8z"/>
			<path class="st6" d="M42.8,145.4l-19.7-10.7l2.3-4.3L45.2,141L42.8,145.4z"/>
			<path class="st6" d="M51.9,130.4c-1.8,2.9-4.6,5.1-8.1,6.1l-1.4-4.3c2.5-0.8,4.5-2.1,5.9-4.2c1.1-1.7,1-3.2-0.1-3.9l-0.1,0
				c-1.1-0.7-2-0.4-4.8,2.3c-3.4,3.2-6,5-9.7,2.7l-0.1,0c-3.4-2.2-4-6.4-1.6-10.2c1.7-2.8,4.1-4.6,6.8-5.5l1.8,4.1
				c-2.2,1-4,2.2-5,3.8c-1,1.6-0.8,2.9,0.1,3.5l0.1,0c1.2,0.8,2.2,0.2,5.1-2.5c3.4-3.2,6.2-4.5,9.5-2.4l0.1,0
				C54.1,122.1,54.4,126.3,51.9,130.4z"/>
			<path class="st6" d="M63.2,114c-2,2.7-5.1,4.7-8.6,5.4l-1-4.4c2.5-0.6,4.7-1.7,6.2-3.7c1.2-1.6,1.3-3.1,0.3-3.9l-0.1,0
				c-1-0.8-2-0.5-5,1.9c-3.6,2.9-6.4,4.5-9.9,1.8l-0.1,0c-3.2-2.4-3.4-6.7-0.7-10.3c2-2.6,4.5-4.2,7.3-4.9l1.4,4.3
				c-2.3,0.8-4.1,1.8-5.3,3.3c-1.1,1.5-1,2.8-0.2,3.5l0.1,0c1.2,0.9,2.1,0.4,5.3-2.1c3.7-2.9,6.5-4,9.6-1.6l0.1,0
				C66.2,105.9,66.1,110.1,63.2,114z"/>
			<path class="st6" d="M70.7,104.1L53.7,89.4l3.2-3.7l16.9,14.7L70.7,104.1z"/>
			<path class="st6" d="M82.7,91.4c-2.4,2.4-5.6,4-9.2,4.3l-0.5-4.5c2.6-0.3,4.8-1,6.6-2.9c1.4-1.4,1.7-2.9,0.8-3.8l0,0
				c-0.9-0.9-1.9-0.8-5.2,1.2c-4,2.4-6.9,3.6-10.1,0.5l0,0c-2.9-2.8-2.5-7.1,0.7-10.3c2.3-2.3,5-3.6,7.9-3.9l0.9,4.4
				c-2.4,0.5-4.3,1.3-5.7,2.6c-1.3,1.3-1.4,2.7-0.6,3.4l0,0c1.1,1,2.1,0.7,5.5-1.4c4-2.4,7-3.1,9.8-0.4l0,0
				C86.7,83.8,86.1,87.9,82.7,91.4z"/>
			<path class="st6" d="M96.9,78.2c-2.6,2.2-5.9,3.5-9.5,3.5l-0.1-4.5c2.6-0.1,4.9-0.6,6.8-2.3c1.5-1.3,1.9-2.7,1.1-3.7l0,0
				c-0.8-0.9-1.8-0.9-5.3,0.8c-4.2,2.1-7.2,3-10.1-0.3l0,0c-2.7-3.1-1.9-7.2,1.5-10.2c2.5-2.1,5.3-3.2,8.2-3.3l0.5,4.5
				c-2.4,0.3-4.4,0.9-5.9,2.1s-1.6,2.5-0.9,3.4l0,0c1,1.1,2,0.9,5.6-0.9c4.2-2.1,7.2-2.5,9.8,0.5l0,0C101.5,70.9,100.5,75,96.9,78.2
				z"/>
			<path class="st6" d="M105.8,70.5L92.3,52.7l3.9-3l13.5,17.9L105.8,70.5z"/>
			<path class="st6" d="M117.5,54l-3.1,2l3.7,5.6l-4.1,2.7l-12.3-18.7l7.7-5c4.5-2.9,8.9-2,11.4,1.8l0,0.1
				C123.6,46.8,121.7,51.3,117.5,54z M116.6,45.2c-1.2-1.8-3.1-2-5.2-0.6l-3.2,2.1l3.7,5.7l3.3-2.1
				C117.3,48.9,117.7,46.9,116.6,45.2L116.6,45.2z"/>
			<path class="st6" d="M135.4,43.4l-3.3,1.8l3.2,5.9l-4.3,2.3l-10.6-19.7l8.1-4.3c4.7-2.5,9.1-1.3,11.2,2.8l0,0.1
				C142.1,36.8,139.8,41.1,135.4,43.4z M135.3,34.6c-1-1.9-3-2.3-5.1-1.1l-3.4,1.8l3.2,6l3.4-1.8C135.6,38.3,136.2,36.3,135.3,34.6
				L135.3,34.6z"/>
			<path class="st6" d="M149.3,44L140,23.6l4.5-2l9.2,20.4L149.3,44z"/>
			<path class="st6" d="M181,32l-10.2,3.1l-6.5-21.4l9.9-3c4.4-1.3,7.7,0,8.8,3.4l0,0.1c0.7,2.4-0.1,4.2-1.4,5.5
				c2.8,0.2,4.7,1.2,5.6,4l0,0.1C188.4,27.6,185.8,30.5,181,32z M178.5,16.3c-0.4-1.4-1.8-1.9-3.8-1.3l-4.7,1.4l1.4,4.5l4.3-1.3
				C177.9,19,179,17.9,178.5,16.3L178.5,16.3z M182.3,24.5c-0.4-1.4-1.8-2-4.2-1.3l-5.4,1.7l1.4,4.7l5.6-1.7
				C181.8,27.2,182.8,26.1,182.3,24.5L182.3,24.5z"/>
			<path class="st6" d="M191.8,28.9L187.3,7l16.5-3.4l0.9,4.3L193,10.3l0.9,4.5l10.3-2.1l0.9,4.3l-10.3,2.1l0.9,4.6l11.9-2.5
				l0.9,4.3L191.8,28.9z"/>
			<path class="st6" d="M225.7,23.5l-1-8.9l-9,1l1,8.9l-4.9,0.5l-2.4-22.3l4.9-0.5l1,8.8l9-1l-1-8.8l4.9-0.5l2.4,22.3L225.7,23.5z"
				/>
			<path class="st6" d="M251.5,22.5l-2.1-5l-9.5,0.2l-2,5.1l-5,0.1l9.2-22.7l4.5-0.1l10,22.4L251.5,22.5z M244.4,6l-2.9,7.3l6-0.1
				L244.4,6z"/>
			<path class="st6" d="M270.9,24l-4.3-0.4l-6.8-23.3l5.4,0.5l4.3,16.3l7.3-15.1l5.3,0.5L270.9,24z"/>
			<path class="st6" d="M282.6,25.4l3.7-22.1l4.9,0.8l-3.7,22.1L282.6,25.4z"/>
			<path class="st6" d="M302.4,29.9c-6.7-1.7-10.3-7.9-8.7-14.1l0-0.1c1.5-6.2,7.7-10,14.4-8.3c6.7,1.7,10.3,7.9,8.7,14.1l0,0.1
				C315.2,27.7,309.1,31.5,302.4,29.9z M311.8,20.3c0.9-3.7-1-7.5-4.9-8.5c-3.8-1-7.3,1.4-8.2,5.1l0,0.1c-0.9,3.7,1,7.5,4.9,8.5
				S310.8,24.1,311.8,20.3L311.8,20.3z"/>
			<path class="st6" d="M329.8,38.2l-2-8.4l-3.6-1.3l-2.5,6.7l-4.6-1.7l7.7-21l9.6,3.5c5,1.8,7,5.5,5.4,9.8l0,0.1
				c-1.2,3.4-3.9,4.9-6.9,4.9l2.4,9.4L329.8,38.2z M335,24.3c0.7-2-0.3-3.5-2.5-4.3l-4.6-1.7l-2.2,6l4.7,1.7
				C332.6,26.9,334.3,26.2,335,24.3L335,24.3z"/>
			<path class="st6" d="M352.6,48.5L353,43l-8.5-4.1l-4,3.6l-4.5-2.2l18.5-16.1l4.1,2l-1.2,24.5L352.6,48.5z M353.8,30.5l-5.8,5.2
				l5.4,2.6L353.8,30.5z"/>
			<path class="st6" d="M359.2,52l11.6-19.2l4.2,2.6l-9.3,15.3l9.5,5.8l-2.3,3.8L359.2,52z"/>
			<path class="st6" d="M397.1,78.8l5.8-6.9l-7-5.8l-5.8,6.9l-3.8-3.2l14.3-17.2l3.8,3.2l-5.7,6.8l7,5.8l5.7-6.8l3.8,3.2l-14.3,17.2
				L397.1,78.8z"/>
			<path class="st6" d="M403.9,84.9l15.9-15.8l11.9,12l-3.1,3.1l-8.5-8.5l-3.2,3.2l7.4,7.5l-3.1,3.1l-7.4-7.5l-3.3,3.3l8.6,8.6
				L416,97L403.9,84.9z"/>
			<path class="st6" d="M428.7,112.3l2.6-4.8l-6-7.3l-5.2,1.6l-3.2-3.9l23.5-6.9l2.9,3.5L432,116.2L428.7,112.3z M437.3,96.5
				l-7.5,2.3l3.8,4.6L437.3,96.5z"/>
			<path class="st6" d="M433.2,118.2l18.6-12.5l2.8,4.1l-14.9,10l6.2,9.3l-3.7,2.5L433.2,118.2z"/>
			<path class="st6" d="M464.1,134l-15.6,8.7l-2.4-4.3l15.6-8.7l-3.3-6l4-2.2l9.1,16.2l-4,2.2L464.1,134z"/>
			<path class="st6" d="M458.7,163.8l8.2-3.6l-3.7-8.3l-8.2,3.6l-2-4.5l20.5-9.1l2,4.5l-8.1,3.6l3.7,8.3l8.1-3.6l2,4.5l-20.5,9.1
				L458.7,163.8z"/>
		</g>
		<g>
			<path class="st6" d="M71.3,429.8l15.7-16l3.5,3.4L78,430.1l8,7.8l-3.1,3.2L71.3,429.8z"/>
			<path class="st6" d="M86.5,444.3l14.2-17.3l13.1,10.7l-2.8,3.4l-9.3-7.6l-2.9,3.5l8.2,6.7l-2.8,3.4l-8.2-6.7l-3,3.6l9.4,7.7
				l-2.8,3.4L86.5,444.3z"/>
			<path class="st6" d="M118.8,468.1l1-5.3l-7.9-5.2l-4.5,3.1l-4.2-2.8l20.4-13.6l3.8,2.5l-4.3,24.1L118.8,468.1z M122.3,450.5
				l-6.5,4.4l5,3.3L122.3,450.5z"/>
			<path class="st6" d="M139.6,479.5l-1-8.6l-3.4-1.8l-3.3,6.4l-4.4-2.3l10.2-19.9l9.1,4.7c4.7,2.4,6.2,6.3,4.1,10.4l0,0.1
				c-1.7,3.2-4.4,4.3-7.4,4l1.2,9.6L139.6,479.5z M146.4,466.4c1-1.9,0.2-3.5-2-4.6l-4.4-2.2l-2.9,5.7l4.4,2.3
				C143.7,468.7,145.5,468.2,146.4,466.4L146.4,466.4z"/>
			<path class="st6" d="M164.1,489.9l-5-17.2L154,486l-4.5-1.8l8.1-20.9l4.2,1.6l4.8,16.6l5-12.9l4.5,1.8l-8.1,20.9L164.1,489.9z"/>
			<path class="st6" d="M175.1,493.5l6.3-21.5l4.7,1.4l-6.3,21.5L175.1,493.5z"/>
			<path class="st6" d="M201,500l-7.6-16.2l-3,13.9l-4.8-1l4.7-21.9l4.4,0.9l7.4,15.7l2.9-13.5l4.8,1l-4.7,21.9L201,500z"/>
			<path class="st6" d="M223.9,503.5c-6.9-0.7-11.3-6-10.6-12.6l0-0.1c0.6-6.3,6-11.1,12.8-10.4c4,0.4,6.3,1.7,8.5,3.9l-3.4,3.4
				c-1.6-1.6-3-2.6-5.6-2.8c-3.6-0.3-6.7,2.5-7.1,6.3l0,0.1c-0.4,4.1,2.1,7.3,6.1,7.7c1.8,0.2,3.4-0.1,4.7-0.9l0.3-3.2l-4.9-0.5
				l0.4-4.2l9.7,0.9l-0.9,9.7C231.3,502.6,228,503.9,223.9,503.5z"/>
			<path class="st6" d="M269.6,503.1l-11.8-13.4l1,14.2l-4.9,0.3l-1.6-22.3l4.5-0.3l11.5,13l-1-13.8l4.9-0.3l1.6,22.3L269.6,503.1z"
				/>
			<path class="st6" d="M280.4,501.9l-3.8-22.1l16.6-2.9l0.8,4.3l-11.8,2.1l0.8,4.5l10.4-1.8l0.8,4.3l-10.4,1.8l0.8,4.6l12-2.1
				l0.8,4.3L280.4,501.9z"/>
			<path class="st6" d="M308.5,477.6l4.7,17.2l-4.8,1.3l-4.7-17.2l-6.6,1.8l-1.2-4.4l17.9-4.9l1.2,4.4L308.5,477.6z"/>
			<path class="st6" d="M348.5,482.1l-4,1.7l-10.3-11.6l1,15.5l-4,1.6l-15.7-17.9l4.9-2l10.1,12.2l-1.2-16l3.9-1.6l10.5,12.1
				l-1.6-15.8l4.8-2L348.5,482.1z"/>
			<path class="st6" d="M369.3,471.2c-6,3.5-12.8,1.6-16.1-3.9l0-0.1c-3.2-5.5-1.5-12.5,4.4-16c6-3.5,12.8-1.6,16.1,3.9l0,0.1
				C377,460.7,375.3,467.7,369.3,471.2z M369.3,457.8c-1.9-3.3-6-4.6-9.4-2.6c-3.4,2-4.2,6.1-2.3,9.4l0,0.1c1.9,3.3,6,4.6,9.4,2.6
				C370.5,465.3,371.3,461.2,369.3,457.8L369.3,457.8z"/>
			<path class="st6" d="M395.7,452.9l-8.1-2.9l-3.1,2.3l4.3,5.7l-3.9,3l-13.4-17.9l8.2-6.1c4.2-3.2,8.4-2.8,11.2,0.9l0,0.1
				c2.2,2.9,2,5.9,0.3,8.4l9.2,3.1L395.7,452.9z M386.9,441c-1.3-1.7-3.1-1.7-5-0.2l-3.9,2.9l3.9,5.1l4-3
				C387.7,444.5,388.1,442.6,386.9,441L386.9,441z"/>
			<path class="st6" d="M415.3,435.8l-11.6-2.3l-0.1,3.7l4.7,5l-3.6,3.3l-15.2-16.4l3.6-3.3l6.6,7.2l0-13.4l4.4-4l-0.2,13.2l15.8,3
				L415.3,435.8z"/>
		</g>
	</g>
	<g>
		<g>
			<path class="st6" d="M173.7,203.1c-4.8,0-9.1,5.5-10.1,10.6c-0.6,3.5,0,6.7,1.7,8.7c1.2,1.4,2.8,2.1,4.6,2.1
				c2.4,0,5.3-1.5,7.4-3.8l0.1-0.1l-0.7-1.6l-0.3,0.2c-1.5,1.5-3.7,2.6-5,2.6c-1.2,0-2.2-0.4-2.9-1.1c-0.9-0.9-1.3-2.3-1.3-4.2
				c7.2-1.6,10.4-5.3,10.9-8.2c0.3-1.4,0-2.7-0.8-3.7C176.5,203.6,175.2,203.1,173.7,203.1z M173.3,205.9c0.5,0,0.9,0.2,1.1,0.5
				c0.4,0.4,0.5,1.1,0.4,1.9c-0.4,2.1-2.6,4.9-7.4,6.1c0-0.2,0.1-0.3,0.1-0.5C168.4,209.1,170.7,205.9,173.3,205.9z"/>
			<path class="st6" d="M200.8,222.1v-2l-0.4,0.4c-0.6,0.5-1.6,1.2-2.1,1.2c-0.2,0-0.3-0.1-0.3-0.1c-0.2-0.2-0.3-0.7-0.1-1.9
				l1.3-7.8c0.6-3.4,0.3-5.9-1-7.4c-0.8-0.9-1.9-1.4-3.3-1.4c-2.2,0-4.4,1.4-6.2,3.8c0.1-1.1-0.1-2.1-0.7-2.7
				c-0.5-0.6-1.2-0.9-2.1-0.9c-1.2,0-2.8,0.8-3.9,2l-0.1,0.1v2.1l0.4-0.5c0.4-0.4,1.5-1.2,2.1-1.2c0.1,0,0.2,0,0.3,0.1
				c0.2,0.3,0.3,1,0.1,2l-2.8,15.6h3.7l1.6-8.7c1-5.6,4.1-8.6,5.9-8.6c0.8,0,1.4,0.2,1.8,0.7c0.7,0.8,0.8,2.5,0.3,5.1l-1.4,7.9
				c-0.2,1.5,0,2.7,0.7,3.4c0.5,0.6,1.2,0.9,2,0.9C197.9,224.3,199.6,223.4,200.8,222.1L200.8,222.1z"/>
			<path class="st6" d="M222.1,204c-0.5-0.6-1.3-1-2.3-1c-1,0-2.6,0.6-3.7,1.5c-0.9-1-2.1-1.5-3.5-1.5c-3.6,0-7.2,3.6-8,8
				c-0.5,2.7,0.2,5.2,1.8,6.7c-2.7,0.9-4.7,2.7-5,4.7c-0.2,1.1,0,2.1,0.6,2.9c1,1.4,3.2,2.2,6.4,2.6c3.3,0.4,5.1,1,5.9,2.1
				c0.4,0.6,0.6,1.3,0.4,2.1c-0.5,2.6-4.1,4.2-7.2,4.2c-2.3,0-4.4-0.7-5.4-1.9c-0.5-0.6-0.7-1.2-0.5-2c0.2-1.1,1-2.2,2.5-3.6
				l0.2-0.2l-1.3-0.9l-0.1,0.1c-3.3,1.6-4.3,3.4-4.5,4.7c-0.2,1.2,0.1,2.3,0.9,3.3c1.4,1.7,4.3,2.7,7.8,2.7c5.7,0,10.3-3.1,11.1-7.5
				c0.3-1.6-0.1-3.1-1-4.3c-1.4-1.8-4-2.9-7.8-3.3c-1.5-0.1-3.5-0.5-4.1-1.3c-0.2-0.2-0.2-0.4-0.2-0.7c0.3-1.3,2.9-2.5,4.8-2.5
				c3.6,0,7.1-3.6,7.9-8c0.4-2,0.1-3.8-0.7-5.3c0.5-0.3,0.8-0.3,0.9-0.3c0.8,0,0.9,0.4,1,0.9c0.1,0.6,0.2,1.4,1.6,1.4
				c1,0,1.8-1,2-1.9C222.7,205.3,222.5,204.6,222.1,204z M210.2,216.8c-0.6,0-1.1-0.2-1.5-0.7c-0.8-0.9-0.9-2.7-0.5-5
				c0.7-3.6,2.2-5.7,4.1-5.7c0.6,0,1.1,0.2,1.5,0.7c0.7,0.9,0.9,2.7,0.5,5C213.8,213.8,212.5,216.8,210.2,216.8z"/>
			<path class="st6" d="M240.3,222.1v-2l-0.4,0.4c-0.6,0.5-1.6,1.2-2.1,1.2c-0.2,0-0.3-0.1-0.3-0.1c-0.2-0.2-0.3-0.7-0.1-1.9
				l2.7-15.6h-3.4c-1.3-0.7-2.3-1-3.8-1c-4.8,0-9.7,4.8-10.8,10.6c-0.6,3.6,0,6.8,1.6,8.8c1.1,1.3,2.7,2,4.5,2c1.7,0,3.8-1,5.2-2.5
				c0.3,1.5,1.2,2.3,2.7,2.3C237.4,224.3,239.1,223.4,240.3,222.1L240.3,222.1z M229.4,221.7c-1,0-1.7-0.3-2.3-1
				c-1.1-1.3-1.3-3.8-0.7-6.9c0.7-4.2,3-8.4,6.3-8.4c1.3,0,2.4,0.4,3.3,1.3l-1.7,10C233.7,219.4,231.6,221.7,229.4,221.7z"/>
			<path class="st6" d="M261.6,204c-0.5-0.6-1.3-1-2.3-1c-1,0-2.6,0.6-3.7,1.5c-0.9-1-2.1-1.5-3.5-1.5c-3.7,0-7.2,3.6-8,8
				c-0.5,2.7,0.2,5.2,1.8,6.7c-2.7,0.9-4.7,2.7-5,4.7c-0.2,1.1,0,2.1,0.6,2.9c1,1.4,3.2,2.2,6.4,2.6c3.3,0.4,5.1,1,5.9,2.1
				c0.4,0.6,0.6,1.3,0.4,2.1c-0.5,2.6-4.1,4.2-7.2,4.2c-2.3,0-4.4-0.7-5.4-1.9c-0.5-0.6-0.7-1.2-0.5-2c0.2-1.1,1-2.2,2.5-3.6
				l0.2-0.2l-1.3-0.9l-0.1,0.1c-3.3,1.6-4.3,3.4-4.5,4.7c-0.2,1.2,0.1,2.3,0.9,3.3c1.4,1.7,4.3,2.7,7.8,2.7c5.7,0,10.3-3.1,11.1-7.5
				c0.3-1.6-0.1-3.1-1-4.3c-1.4-1.8-4-2.9-7.8-3.3c-1.5-0.1-3.5-0.5-4.1-1.3c-0.2-0.2-0.2-0.4-0.2-0.7c0.3-1.3,2.9-2.5,4.8-2.5
				c3.6,0,7.1-3.6,7.9-8c0.4-2,0.1-3.8-0.7-5.3c0.5-0.3,0.8-0.3,0.9-0.3c0.8,0,0.9,0.4,1,0.9c0.1,0.6,0.2,1.4,1.6,1.4
				c1,0,1.8-1,2-1.9C262.2,205.3,262,204.6,261.6,204z M249.7,216.8c-0.6,0-1.1-0.2-1.5-0.7c-0.8-0.9-0.9-2.7-0.5-5
				c0.7-3.6,2.2-5.7,4.1-5.7c0.6,0,1.1,0.2,1.5,0.7c0.7,0.9,0.9,2.7,0.5,5C253.3,213.8,252,216.8,249.7,216.8z"/>
			<path class="st6" d="M276.2,208.3c0.3-1.4,0-2.7-0.8-3.7c-0.8-1-2.1-1.5-3.6-1.5c-4.8,0-9.1,5.5-10.1,10.6
				c-0.6,3.5,0,6.7,1.7,8.7c1.2,1.4,2.8,2.1,4.6,2.1c2.4,0,5.3-1.5,7.4-3.8l0.1-0.1l-0.7-1.6l-0.3,0.2c-1.5,1.5-3.7,2.6-5,2.6
				c-1.2,0-2.2-0.4-2.9-1.1c-0.9-0.9-1.3-2.3-1.3-4.2C272.5,214.9,275.7,211.2,276.2,208.3z M271.4,205.9c0.5,0,0.9,0.2,1.1,0.5
				c0.4,0.4,0.5,1.1,0.4,1.9c-0.4,2.1-2.6,4.9-7.4,6.1c0-0.2,0.1-0.3,0.1-0.5C266.4,209.1,268.8,205.9,271.4,205.9z"/>
		</g>
		<g>
			<path class="st6" d="M179.9,244.3c-4.8,0-9.1,5.5-10.1,10.6c-0.6,3.5,0,6.7,1.7,8.7c1.2,1.4,2.8,2.1,4.6,2.1
				c2.4,0,5.3-1.5,7.4-3.8l0.1-0.1l-0.7-1.6l-0.3,0.2c-1.5,1.5-3.7,2.6-5,2.6c-1.2,0-2.2-0.4-2.9-1.1c-0.9-0.9-1.3-2.3-1.3-4.2
				c7.2-1.6,10.4-5.3,10.9-8.2c0.3-1.4,0-2.7-0.8-3.7C182.7,244.8,181.4,244.3,179.9,244.3z M179.5,247c0.5,0,0.9,0.2,1.1,0.4
				c0.4,0.4,0.5,1.1,0.4,1.9c-0.4,2.1-2.6,4.9-7.4,6.1c0-0.2,0.1-0.3,0.1-0.5C174.6,250.3,176.9,247,179.5,247z"/>
			<path class="st6" d="M217,263.3v-2l-0.4,0.4c-0.4,0.4-1.5,1.2-2.1,1.2c-0.1,0-0.2,0-0.3-0.1c-0.2-0.3-0.2-1,0-1.9l1.3-7.8
				c0.7-3.7,0.4-6.2-0.7-7.5c-0.7-0.8-1.8-1.3-3.1-1.3c-2.4,0-4.9,1.8-6.5,4.5c-0.1-1.6-0.5-2.7-1.2-3.5c-0.7-0.7-1.7-1.1-2.9-1.1
				c-2.1,0-4.4,1.5-6,3.7c0.1-1.1-0.2-2-0.7-2.6c-0.5-0.6-1.2-0.9-2.1-0.9c-1.2,0-2.8,0.8-3.9,2l-0.1,0.1v2.1l0.4-0.5
				c0.4-0.4,1.5-1.2,2.1-1.2c0.1,0,0.2,0,0.3,0.1c0.2,0.3,0.3,1,0.1,2l-2.8,15.6h3.7l1.6-8.7c1-5.9,3.9-8.6,5.7-8.6
				c0.8,0,1.2,0.2,1.6,0.6c0.6,0.7,0.6,2.2,0.1,5.2l-2,11.5h3.6l1.6-8.7c1-5.9,3.9-8.6,5.7-8.6c0.8,0,1.3,0.2,1.6,0.6
				c0.6,0.7,0.6,2.3,0.1,5.2l-1.4,7.9c-0.2,1.4,0,2.6,0.6,3.4c0.5,0.6,1.2,0.9,2.1,0.9C214.1,265.5,215.7,264.6,217,263.3L217,263.3
				z"/>
			<path class="st6" d="M232,244.3c-1.5,0-2.4,0.3-3.6,0.8l1.5-8.9h-3.6l-0.5,2.8c-1.5,8.2-4.8,14.3-7.2,17.1l-0.2,0.2l1.4,1
				l0.1-0.2c1.3-1.5,2.5-3.3,3.6-5.2l-3.4,19c-1,5.5-1.7,6.4-5.4,6.4h-0.2l-0.4,1.7H227l0.3-1.7H227c-1.8,0-2.6-0.2-3.1-0.8
				c-0.6-0.7-0.6-2.2,0-5.6l1.3-7.5c1.1,1.4,2.6,2.2,4.1,2.2c4.6,0,8.8-4.5,9.8-10.7c0.6-3.2-0.1-6.2-1.8-8.3
				C236,245.1,234.1,244.3,232,244.3z M231.7,246.6c1,0,1.7,0.4,2.3,1.1c1.2,1.4,1.5,4.1,1,7.3c-0.9,5-3.1,8-5.9,8
				c-0.8,0-1.6-0.4-2.1-1c-0.8-1-1.1-2.4-0.8-4l1.7-10C229.1,247,230.4,246.6,231.7,246.6z"/>
			<path class="st6" d="M253.3,244.3c-4.8,0-9.7,4.8-10.8,10.6c-0.5,3.3,0.1,6.3,1.9,8.4c1.3,1.6,3.2,2.4,5.2,2.4
				c4.8,0,9.6-4.8,10.7-10.7c0.6-3.2-0.1-6.3-1.8-8.3C257.2,245.1,255.3,244.3,253.3,244.3z M256.1,254.9c-1,5.3-3.3,8.5-6.3,8.5
				c-1,0-1.8-0.3-2.3-1c-1.1-1.3-1.4-4-0.8-7.4c0.7-4.1,2.8-8.5,6.3-8.5c1,0,1.7,0.3,2.3,1C256.4,248.9,256.7,251.6,256.1,254.9z"/>
			<path class="st6" d="M287.2,244.2c-0.9,0-1.5,0.5-1.7,1.3c-0.2,0.9,0.2,1.5,0.6,2.2c0.7,1.2,1.7,2.7,0.9,7.2
				c-1,5.6-3.5,8.2-5.5,8.2c-1.5,0-2.9-1.2-3.6-3.4c1.6-2.5,2.8-5.5,3.4-8.5c0.5-2.9,0.3-5.2-0.7-6.3c-0.4-0.4-0.8-0.6-1.3-0.6
				c-1.7,0-3.9,2.8-4.8,7.4c-0.6,3.7-0.5,6.8,0.3,9.2c-1.2,1.4-2.5,2.1-3.8,2.1c-0.6,0-1.2-0.3-1.6-0.8c-0.8-0.9-1-2.5-0.7-4.4
				c0.5-3,1.4-5.9,2.2-8.3c0.6-1.9,1.1-3.6,1.4-5l0.1-0.3h-1.4l-0.1,0c-0.9,0.6-1.3,0.5-2.1,0.4c-0.4-0.1-1-0.2-1.7-0.2
				c-1.1,0-2.8,0.9-3.9,2l-0.1,0.1v2.1l0.4-0.4c0.5-0.5,1.6-1.2,2.1-1.2c1.2,0,2.1,0.4,2.9,0.8c0.1,0.1,0.3,0.1,0.4,0.2
				c-0.2,0.9-0.8,2.2-1.6,3.7c-1,2.1-2.2,4.4-2.5,6.6c-0.4,2.5-0.1,4.5,1,5.8c0.9,1.1,2.3,1.6,4,1.6c1.8,0,3.7-1.1,5.6-3
				c1.2,2,3.1,3,5.3,3c3.1,0,6.9-3.7,8.2-10.7c0.8-4.7,0.5-8.5-0.8-10.1C288,244.3,287.5,244.2,287.2,244.2z M279.3,247.1
				C279.3,247.1,279.3,247.1,279.3,247.1c0.3,0.3,0.5,1.6,0,4c-0.3,1.9-1,3.9-1.8,5.7c-0.1-1.8,0-3.8,0.4-5.9
				C278.4,248.1,279.1,247.1,279.3,247.1z"/>
			<path class="st6" d="M302.8,244.3c-4.8,0-9.1,5.5-10.1,10.6c-0.6,3.5,0,6.7,1.7,8.7c1.2,1.4,2.8,2.1,4.6,2.1
				c2.4,0,5.3-1.5,7.4-3.8l0.1-0.1l-0.7-1.6l-0.3,0.2c-1.5,1.5-3.7,2.6-5,2.6c-1.2,0-2.2-0.4-2.9-1.1c-0.9-0.9-1.3-2.3-1.3-4.2
				c7.2-1.6,10.4-5.3,10.9-8.2c0.3-1.4,0-2.7-0.8-3.7C305.6,244.8,304.3,244.3,302.8,244.3z M302.4,247c0.5,0,0.9,0.2,1.1,0.4
				c0.4,0.4,0.5,1.1,0.4,1.9c-0.4,2.1-2.6,4.9-7.4,6.1c0-0.2,0.1-0.3,0.1-0.5C297.4,250.3,299.8,247,302.4,247z"/>
			<path class="st6" d="M325.3,245.3c-0.6-0.7-1.4-1-2.5-1c-1.9,0-3.8,1.5-5.2,4c0.1-1.3-0.1-2.3-0.6-2.9c-0.4-0.5-1.1-0.8-1.9-0.8
				c-1.2,0-2.8,0.8-3.9,2l-0.1,0.1v2.1l0.4-0.5c0.4-0.4,1.5-1.2,2.1-1.2c0.1,0,0.2,0,0.3,0.1c0.2,0.3,0.3,1,0.1,2l-2.8,15.6h3.5
				l1-5.7c1.5-8.1,4.1-11.7,5.6-11.7c0.1,0,0.2,0,0.2,0.1c0.1,0.1,0.1,0.7,0,0.8c-0.1,0.5,0,1.1,0.4,1.5c0.3,0.4,0.8,0.6,1.4,0.6
				c1.5,0,2.4-1.1,2.5-2.1C326.1,247.1,325.9,246,325.3,245.3z"/>
		</g>
		<g>
			<path class="st6" d="M200.7,286.6c-4.8,0-9.1,5.5-10.1,10.6c-0.6,3.5,0,6.7,1.7,8.7c1.2,1.4,2.8,2.1,4.6,2.1
				c2.4,0,5.3-1.5,7.4-3.8l0.1-0.1l-0.7-1.6l-0.3,0.2c-1.5,1.5-3.7,2.6-5,2.6c-1.2,0-2.2-0.4-2.9-1.1c-0.9-0.9-1.3-2.3-1.3-4.2
				c7.2-1.6,10.4-5.3,10.9-8.2c0.3-1.4,0-2.7-0.8-3.7C203.5,287.1,202.2,286.6,200.7,286.6z M200.3,289.4c0.5,0,0.9,0.2,1.1,0.5
				c0.4,0.4,0.5,1.1,0.4,1.9c-0.4,2.1-2.6,4.9-7.4,6.1c0-0.2,0.1-0.3,0.1-0.5C195.4,292.6,197.7,289.4,200.3,289.4z"/>
			<path class="st6" d="M225.3,305.2c-0.2,0-0.3-0.1-0.3-0.1c-0.2-0.2-0.3-0.7-0.1-1.9l1.3-7.8c0.6-3.4,0.3-5.9-1-7.4
				c-0.8-0.9-1.9-1.4-3.3-1.4c-2.2,0-4.4,1.4-6.2,3.8c0.1-1.1-0.1-2.1-0.7-2.7c-0.5-0.6-1.2-0.9-2.1-0.9c-1.2,0-2.8,0.8-3.9,2
				l-0.1,0.1v2.1l0.4-0.5c0.4-0.4,1.5-1.2,2.1-1.2c0.1,0,0.2,0,0.3,0.1c0.2,0.3,0.3,1,0.1,2l-2.8,15.6h3.7l1.6-8.7
				c1-5.6,4.1-8.6,5.9-8.6c0.8,0,1.4,0.2,1.8,0.7c0.7,0.8,0.8,2.5,0.3,5.1l-1.4,7.9c-0.2,1.5,0,2.7,0.7,3.4c0.5,0.6,1.2,0.9,2,0.9
				c1.1,0,2.7-0.9,3.9-2.1l0.1-0.1v-2l-0.4,0.4C226.9,304.5,225.8,305.2,225.3,305.2z"/>
			<path class="st6" d="M247.2,305.2c-0.2,0-0.3-0.1-0.3-0.1c-0.2-0.2-0.3-0.7-0.1-1.9l1.3-7.8c0.6-3.4,0.3-5.9-1-7.4
				c-0.8-0.9-1.9-1.4-3.3-1.4c-2.2,0-4.4,1.4-6.1,3.8l3.3-19.1l-7.3,1.5l-0.2,1.7h0.3c1.1,0,1.7,0.2,2,0.6c0.6,0.8,0.4,2.6-0.1,5.8
				l-4.6,26.2h3.7l1.6-8.7c1-6.1,4.4-8.6,5.9-8.6c0.8,0,1.4,0.2,1.8,0.7c0.7,0.8,0.8,2.5,0.4,5.1l-1.4,7.9c-0.2,1.5,0,2.7,0.7,3.4
				c0.5,0.6,1.2,0.9,2,0.9c1.1,0,2.7-0.9,3.9-2.1l0.1-0.1v-2l-0.4,0.4C248.8,304.5,247.7,305.2,247.2,305.2z"/>
			<path class="st6" d="M268.9,305.2c-0.2,0-0.3-0.1-0.3-0.1c-0.2-0.2-0.3-0.7-0.1-1.9l2.7-15.6h-3.4c-1.3-0.7-2.3-1-3.8-1
				c-4.8,0-9.7,4.8-10.8,10.6c-0.6,3.6,0,6.8,1.6,8.8c1.1,1.3,2.7,2,4.5,2c1.7,0,3.8-1,5.2-2.5c0.3,1.5,1.2,2.3,2.7,2.3
				c1.1,0,2.7-0.9,3.9-2.1l0.1-0.1v-2L271,304C270.5,304.5,269.4,305.2,268.9,305.2z M260.5,305.2c-1,0-1.7-0.3-2.3-1
				c-1.1-1.3-1.3-3.8-0.7-6.9c0.7-4.2,3-8.4,6.3-8.4c1.3,0,2.4,0.4,3.3,1.3l-1.7,10C264.8,302.9,262.7,305.2,260.5,305.2z"/>
			<path class="st6" d="M291.5,305.2c-0.2,0-0.3-0.1-0.3-0.1c-0.2-0.2-0.3-0.7-0.1-1.9l1.3-7.8c0.6-3.4,0.3-5.9-1-7.4
				c-0.8-0.9-1.9-1.4-3.3-1.4c-2.2,0-4.4,1.4-6.2,3.8c0.1-1.1-0.1-2.1-0.7-2.7c-0.5-0.6-1.2-0.9-2.1-0.9c-1.2,0-2.8,0.8-3.9,2
				l-0.1,0.1v2.1l0.4-0.5c0.4-0.4,1.5-1.2,2.1-1.2c0.1,0,0.2,0,0.3,0.1c0.2,0.3,0.3,1,0.1,2l-2.8,15.6h3.7l1.6-8.7
				c1-5.6,4.1-8.6,5.9-8.6c0.8,0,1.4,0.2,1.8,0.7c0.7,0.8,0.8,2.5,0.3,5.1l-1.4,7.9c-0.2,1.5,0,2.7,0.7,3.4c0.5,0.6,1.2,0.9,2,0.9
				c1.1,0,2.7-0.9,3.9-2.1l0.1-0.1v-2l-0.4,0.4C293.1,304.5,292,305.2,291.5,305.2z"/>
			<path class="st6" d="M307,286.6c-3.7,0-8.5,4.5-9.7,11.2c-0.6,3.5-0.1,6.4,1.4,8.3c1.1,1.3,2.7,2,4.6,2c2.5,0,5.2-1.4,7.3-3.8
				l0.1-0.1l-0.8-1.6l-0.2,0.3c-1.8,1.9-3.7,2.5-4.8,2.5c-1.3,0-2.2-0.4-2.9-1.2c-1-1.2-1.3-3.4-0.8-6.2c1.1-6.1,3.9-8.9,5.6-8.9
				c0.9,0,1,0.6,1.2,1.7c0.1,1,0.3,2.1,1.7,2.1c1.1,0,1.9-0.8,2.1-2.1c0.1-0.7,0-1.7-0.8-2.5C310.4,287.4,309.2,286.6,307,286.6z"/>
			<path class="st6" d="M328.4,291.8c0.3-1.4,0-2.7-0.8-3.7c-0.8-1-2.1-1.5-3.6-1.5c-4.8,0-9.1,5.5-10.1,10.6
				c-0.6,3.5,0,6.7,1.7,8.7c1.2,1.4,2.8,2.1,4.6,2.1c2.4,0,5.3-1.5,7.4-3.8l0.1-0.1l-0.7-1.6l-0.3,0.2c-1.5,1.5-3.7,2.6-5,2.6
				c-1.2,0-2.2-0.4-2.9-1.1c-0.9-0.9-1.3-2.3-1.3-4.2C324.8,298.4,327.9,294.7,328.4,291.8z M323.6,289.4c0.5,0,0.9,0.2,1.1,0.5
				c0.4,0.4,0.5,1.1,0.4,1.9c-0.4,2.1-2.6,4.9-7.4,6.1c0-0.2,0.1-0.3,0.1-0.5C318.7,292.6,321,289.4,323.6,289.4z"/>
		</g>
	</g>
</g>
</svg>
